<?xml version="1.0" standalone="no"?>
<!DOCTYPE svg PUBLIC "-//W3C//DTD SVG 20010904//EN"
 "http://www.w3.org/TR/2001/REC-SVG-20010904/DTD/svg10.dtd">
<svg version="1.0" xmlns="http://www.w3.org/2000/svg"
 width="658.000000pt" height="649.000000pt" viewBox="0 0 658.000000 649.000000"
 preserveAspectRatio="xMidYMid meet">

<g transform="translate(0.000000,649.000000) scale(0.100000,-0.100000)"
fill="#000000" stroke="none">
<path d="M0 3245 l0 -3245 3290 0 3290 0 0 3245 0 3245 -3290 0 -3290 0 0
-3245z m1323 3087 c35 5 959 7 2053 5 l1989 -2 80 -22 c116 -31 230 -82 328
-146 91 -59 247 -200 247 -223 0 -8 5 -14 10 -14 6 0 10 -4 10 -10 0 -5 -5 -9
-12 -7 -7 1 -13 -16 -15 -47 -3 -59 -23 -86 -47 -66 -24 19 -21 81 4 87 11 3
20 9 20 14 0 4 -41 44 -91 89 -179 161 -370 263 -572 305 -99 21 -123 20 -130
-6 -8 -29 -51 -22 -55 8 l-3 23 -565 0 -564 0 0 -36 c0 -28 -3 -35 -17 -32
-12 2 -19 14 -21 36 l-3 32 -280 0 -279 0 0 -30 c0 -16 -4 -30 -8 -30 -4 0 -8
12 -7 28 l0 27 -267 3 -268 2 -2 -32 -1 -33 -4 33 -4 32 -170 0 -169 0 0 -30
c0 -16 -4 -30 -8 -30 -4 0 -8 12 -7 28 l0 27 -540 0 c-576 0 -588 -1 -750 -52
-96 -30 -256 -112 -318 -162 -25 -20 -64 -49 -87 -66 -23 -16 -72 -62 -110
-101 -88 -90 -94 -95 -112 -89 -28 11 -7 53 68 134 148 159 349 280 552 331
29 7 42 16 42 28 1 15 2 15 10 1 8 -13 19 -14 73 -7z m405 -34 c13 -13 16 -54
4 -61 -4 -3 -7 9 -7 26 0 22 -5 32 -15 32 -10 0 -15 -10 -15 -32 0 -18 -3 -33
-7 -33 -13 0 -9 55 4 68 7 7 15 12 18 12 3 0 11 -5 18 -12z m1159 -25 c-3 -10
-5 -4 -5 12 0 17 2 24 5 18 2 -7 2 -21 0 -30z m2302 -103 c-2 -59 -19 -68 -19
-10 0 22 -5 40 -11 40 -5 0 -7 5 -4 10 3 6 13 10 21 10 11 0 14 -12 13 -50z
m-3461 28 c31 -31 0 -105 -33 -78 -15 12 -21 71 -8 83 10 11 28 8 41 -5z m634
-40 c2 -21 1 -38 -3 -38 -8 0 -17 79 -10 86 7 6 9 0 13 -48z m150 7 c2 -33 0
-45 -11 -45 -10 0 -12 9 -8 35 3 20 2 35 -4 35 -6 0 -7 5 -4 10 13 21 23 8 27
-35z m376 -3 c3 -36 0 -42 -17 -42 -23 0 -36 31 -27 66 11 43 40 27 44 -24z
m524 -14 c3 -26 0 -38 -9 -38 -9 0 -11 9 -7 30 4 17 1 36 -5 44 -9 11 -9 15 1
18 14 5 15 3 20 -54z m316 50 c7 -7 12 -21 11 -32 -1 -18 -2 -17 -8 4 -4 15
-14 24 -24 24 -9 -1 -14 2 -11 7 7 12 18 11 32 -3z m-2626 -50 c2 -23 0 -38
-7 -38 -6 0 -9 18 -6 48 4 51 7 48 13 -10z m3176 40 c7 -7 11 -23 11 -37 -1
-24 -2 -24 -8 4 -3 17 -13 30 -21 30 -8 0 -18 -13 -21 -30 -6 -28 -7 -28 -8
-4 -1 23 14 49 29 49 3 0 11 -5 18 -12z m1262 -27 c0 -22 -5 -43 -10 -46 -17
-11 -40 15 -40 45 0 31 7 40 32 40 14 0 18 -8 18 -39z m-1538 -11 c2 -23 -1
-40 -7 -40 -5 0 -10 18 -10 40 0 22 3 40 6 40 4 0 9 -18 11 -40z m-799 -75
c-3 -9 -8 -14 -10 -11 -3 3 -2 9 2 15 9 16 15 13 8 -4z m-315 -38 c3 -32 0
-37 -17 -37 -12 0 -21 4 -21 10 0 5 7 7 15 4 11 -5 15 1 15 25 0 35 -20 43
-21 9 0 -13 -3 -17 -6 -10 -7 19 5 44 20 40 6 -3 13 -21 15 -41z m2300 31 c7
-7 12 -29 12 -49 0 -29 -5 -39 -20 -44 -11 -3 -24 -3 -30 0 -15 9 -13 92 3 98
19 8 22 8 35 -5z m-2811 -15 c4 -11 -1 -22 -15 -31 -12 -8 -22 -18 -22 -23 0
-14 28 -11 33 4 4 9 6 9 6 -1 1 -18 -28 -27 -42 -13 -9 10 -7 17 11 31 22 18
30 40 14 40 -4 0 -14 -6 -21 -12 -10 -11 -11 -10 -6 5 9 22 34 22 42 0z m148
-28 c0 -34 -4 -40 -22 -43 -20 -3 -22 1 -21 35 1 47 5 55 26 51 13 -2 17 -14
17 -43z m702 13 c-3 -7 -5 -2 -5 12 0 14 2 19 5 13 2 -7 2 -19 0 -25z m-1686
-20 c-4 -35 -6 -38 -9 -15 -3 26 3 57 10 57 2 0 1 -19 -1 -42z m37 -9 c-3 -33
-4 -33 -8 8 -3 23 -2 39 3 34 5 -5 7 -24 5 -42z m160 0 c3 -48 -11 -65 -43
-53 -19 8 -21 90 -2 97 30 13 42 2 45 -44z m3800 23 c2 -13 -3 -25 -12 -28
-21 -8 -20 -21 2 -27 13 -4 11 -5 -5 -6 -26 -1 -30 20 -8 39 20 17 20 44 -1
36 -9 -3 -12 -2 -9 5 10 16 30 5 33 -19z m-2118 -5 c0 -23 -17 -47 -32 -47 -5
0 -1 11 7 24 11 16 13 26 6 31 -6 3 -11 1 -11 -6 0 -7 -3 -10 -6 -6 -9 9 5 27
22 27 8 0 14 -10 14 -23z m315 -27 c0 -41 -2 -45 -25 -45 -21 0 -26 5 -28 33
-5 47 4 64 30 60 20 -3 23 -9 23 -48z m-2627 28 c18 -18 15 -64 -5 -79 -16
-13 -17 -12 -5 3 16 20 12 70 -5 76 -9 2 -13 -10 -13 -40 0 -31 -3 -39 -10
-28 -18 29 -6 80 20 80 3 0 11 -5 18 -12z m-243 -43 c0 -33 -3 -40 -20 -40
-22 0 -30 24 -21 61 5 17 12 24 24 22 13 -2 17 -13 17 -43z m2555 -31 c0 -2
-9 -4 -20 -4 -11 0 -20 4 -20 9 0 5 9 7 20 4 11 -3 20 -7 20 -9z m821 -16 c-3
-21 -6 -26 -9 -15 -3 17 3 47 11 47 2 0 1 -15 -2 -32z m49 -1 c0 -12 -4 -28
-8 -34 -5 -7 -8 4 -7 26 0 22 3 37 8 34 4 -2 7 -14 7 -26z m-1399 -20 c6 -38
-10 -65 -31 -52 -11 7 -14 78 -3 89 14 14 28 -2 34 -37z m-503 -17 c2 -14 -4
-34 -11 -45 -13 -16 -17 -17 -31 -6 -16 14 -22 62 -9 75 16 16 48 1 51 -24z
m124 -15 c2 -26 -1 -45 -7 -45 -5 0 -10 20 -10 45 0 25 3 45 6 45 4 0 9 -20
11 -45z m-383 -7 c0 -31 -3 -37 -8 -24 -7 18 -3 66 5 66 2 0 4 -19 3 -42z
m3058 -8 c-2 -42 -5 -50 -21 -50 -16 0 -17 3 -8 12 16 16 16 82 0 72 -7 -4 -8
-3 -4 4 4 7 13 12 21 12 10 0 13 -13 12 -50z m345 10 c3 -31 0 -40 -12 -40
-11 0 -15 11 -15 40 0 23 5 40 11 40 7 0 14 -18 16 -40z m-2124 -37 c-1 -44
-2 -45 -5 -10 -2 20 -9 37 -14 37 -6 0 -7 5 -4 10 14 23 25 7 23 -37z m320 38
c8 -5 12 -23 10 -47 -3 -34 -6 -39 -28 -39 -21 0 -26 5 -28 33 -2 18 2 40 9
48 13 16 19 17 37 5z m-2893 -40 c0 -22 -3 -37 -7 -34 -14 8 -8 73 6 73 1 0 1
-18 1 -39z m32 -23 c-2 -13 -4 -3 -4 22 0 25 2 35 4 23 2 -13 2 -33 0 -45z
m231 -5 l-1 -48 -4 43 c-3 27 -8 40 -15 36 -7 -4 -8 -2 -4 4 15 25 26 10 24
-35z m622 -55 l-5 -53 -3 48 c-2 28 -8 47 -15 47 -8 0 -7 4 3 9 22 15 25 7 20
-51z m1160 17 c0 -25 -4 -45 -9 -45 -9 0 -20 77 -12 86 14 13 21 -1 21 -41z
m-2332 18 c-10 -2 -18 -9 -18 -14 0 -6 6 -7 12 -2 7 4 -4 -16 -25 -45 -20 -29
-37 -57 -37 -62 0 -6 -7 -10 -15 -10 -9 0 -12 -6 -8 -16 5 -13 2 -15 -18 -9
-23 7 -24 7 -4 -9 12 -9 15 -15 7 -16 -7 0 -10 -5 -7 -10 3 -6 -1 -13 -9 -16
-9 -3 -14 -10 -11 -14 3 -5 -5 -30 -16 -57 -32 -71 -69 -220 -69 -274 0 -43
-12 -71 -23 -52 -8 15 12 181 28 240 27 95 48 153 58 153 4 0 6 4 3 9 -4 5 -2
11 4 13 6 2 12 14 15 27 2 14 10 28 16 31 6 4 10 10 10 14 -3 20 1 26 17 26
14 0 15 2 2 10 -12 8 -12 10 5 11 11 0 14 3 7 6 -19 7 5 33 32 34 11 0 15 3 9
6 -27 10 -13 33 20 32 17 -1 24 -3 15 -6z m1816 -47 c1 -25 -1 -46 -5 -46 -8
0 -17 89 -10 96 9 9 13 -6 15 -50z m148 -8 c2 -22 0 -38 -7 -38 -6 0 -9 20 -8
47 3 73 8 70 15 -9z m3018 7 c0 -18 -6 -36 -12 -38 -10 -4 -9 -8 2 -16 15 -10
8 -27 -8 -17 -7 4 -8 68 -2 114 0 2 5 0 10 -3 6 -3 10 -21 10 -40z m-342 -26
c-2 -39 -7 -49 -21 -49 -14 0 -16 4 -7 19 5 11 10 31 10 45 0 20 -4 24 -17 20
-16 -5 -16 -4 1 10 28 23 37 10 34 -45z m-3068 14 c-11 -17 -11 -17 -6 0 3 10
6 24 7 30 0 9 2 9 5 0 3 -7 0 -20 -6 -30z m4027 -35 c-1 -10 -4 -18 -8 -18 -4
0 -9 -9 -12 -21 -8 -29 -39 -20 -52 15 -8 24 -6 31 13 47 19 15 27 16 42 7 10
-7 18 -20 17 -30z m-2276 21 c28 -9 53 -9 91 -1 61 12 147 0 164 -23 6 -8 25
-15 42 -15 43 0 149 -24 267 -61 55 -17 133 -35 173 -40 111 -14 172 -51 105
-64 l-37 -7 51 -17 c53 -18 123 -64 123 -82 0 -13 -5 -12 -68 20 -31 15 -70
32 -87 36 -35 10 -35 10 -55 18 -8 3 -26 8 -40 10 -21 3 -18 5 20 16 l45 14
-60 12 c-33 7 -84 20 -114 29 -29 8 -58 13 -62 10 -5 -3 -8 0 -7 7 3 14 -70
35 -154 45 -34 4 -55 11 -52 16 7 12 -198 6 -231 -6 -20 -7 -20 -7 -1 8 11 9
34 19 53 22 18 3 33 11 33 16 0 12 -107 3 -146 -12 -17 -7 -24 -6 -24 3 0 6
-7 3 -15 -7 -8 -11 -15 -14 -15 -8 0 7 -10 12 -22 12 -34 0 -141 -31 -159 -47
-8 -7 -19 -13 -23 -13 -14 0 48 58 79 74 l30 16 -32 0 c-43 0 -136 -36 -172
-66 -33 -28 -41 -30 -41 -9 0 21 69 84 104 94 45 13 193 13 237 0z m2116 -36
c-3 -10 -5 -4 -5 12 0 17 2 24 5 18 2 -7 2 -21 0 -30z m-5370 -20 c-3 -10 -5
-2 -5 17 0 19 2 27 5 18 2 -10 2 -26 0 -35z m501 8 c2 -18 0 -37 -5 -42 -5 -5
-7 9 -5 31 3 33 1 40 -13 40 -14 0 -16 -7 -13 -40 4 -40 -5 -53 -16 -24 -9 25
-7 49 6 62 22 22 43 9 46 -27z m999 17 c-3 -8 -6 -5 -6 6 -1 11 2 17 5 13 3
-3 4 -12 1 -19z m-539 -49 c-3 -33 -4 -33 -8 8 -3 23 -2 39 3 34 5 -5 7 -24 5
-42z m-41 -11 c-2 -13 -4 -5 -4 17 -1 22 1 32 4 23 2 -10 2 -28 0 -40z m198
-23 c0 -47 -2 -50 -25 -50 -22 0 -25 5 -28 39 -4 52 3 68 30 64 20 -3 23 -9
23 -53z m-490 17 c-3 -3 -11 0 -18 7 -9 10 -8 11 6 5 10 -3 15 -9 12 -12z
m2228 -27 c-22 -27 -40 -40 -44 -34 -10 16 -41 -3 -80 -51 -34 -41 -53 -52
-42 -24 9 23 -23 5 -61 -35 -22 -23 -32 -28 -38 -19 -5 9 -22 -2 -58 -37 -27
-27 -53 -57 -56 -67 -8 -28 -24 -21 -24 10 0 60 87 128 328 254 51 26 97 48
103 48 5 0 -7 -20 -28 -45z m2057 19 c0 -16 -16 -19 -25 -4 -8 13 4 32 16 25
5 -4 9 -13 9 -21z m-335 -49 c0 -47 -2 -50 -25 -50 -22 0 -25 5 -28 39 -4 52
3 68 30 64 20 -3 23 -9 23 -53z m-4345 35 c0 -5 -5 -10 -11 -10 -5 0 -7 5 -4
10 3 6 8 10 11 10 2 0 4 -4 4 -10z m5138 -32 c-1 -37 -2 -39 -5 -10 -2 17 -10
32 -16 32 -7 0 -6 4 3 10 8 5 16 10 18 10 1 0 1 -19 0 -42z m-5387 0 c-3 -21
-6 -26 -9 -15 -3 17 3 47 11 47 2 0 1 -15 -2 -32z m39 -3 c0 -13 -3 -26 -7
-28 -5 -3 -8 10 -8 28 0 18 3 31 8 28 4 -2 7 -15 7 -28z m2240 25 c0 -5 -2
-10 -4 -10 -3 0 -8 5 -11 10 -3 6 -1 10 4 10 6 0 11 -4 11 -10z m-745 -50 c0
-41 -2 -45 -25 -45 -21 0 -26 5 -28 33 -5 47 4 64 30 60 20 -3 23 -9 23 -48z
m1395 40 c0 -5 -5 -10 -11 -10 -5 0 -7 5 -4 10 3 6 8 10 11 10 2 0 4 -4 4 -10z
m2000 -50 c0 -41 -4 -60 -12 -60 -11 0 -14 42 -9 113 1 4 6 7 11 7 6 0 10 -27
10 -60z m-85 0 c0 -28 -4 -35 -20 -35 -13 0 -21 8 -23 23 -5 34 5 54 25 50 13
-2 18 -13 18 -38z m-4325 -21 c0 -43 -20 -60 -45 -39 -19 16 -19 54 0 74 25
25 45 9 45 -35z m2400 36 c0 -8 -4 -15 -10 -15 -5 0 -7 7 -4 15 4 8 8 15 10
15 2 0 4 -7 4 -15z m-1983 -67 c-2 -13 -4 -5 -4 17 -1 22 1 32 4 23 2 -10 2
-28 0 -40z m40 0 c-2 -13 -4 -5 -4 17 -1 22 1 32 4 23 2 -10 2 -28 0 -40z
m1829 5 c-10 -10 -19 5 -10 18 6 11 8 11 12 0 2 -7 1 -15 -2 -18z m-2805 -40
c-4 -28 -6 -32 -9 -15 -3 22 3 52 11 52 1 0 1 -17 -2 -37z m39 2 c0 -13 -3
-26 -7 -28 -5 -3 -8 10 -8 28 0 18 3 31 8 28 4 -2 7 -15 7 -28z m5634 27 c2
-4 7 -24 11 -45 6 -30 4 -37 -9 -37 -10 0 -13 5 -9 17 4 11 3 14 -5 9 -7 -4
-12 -3 -12 3 0 5 -3 17 -7 27 -4 12 -3 15 5 10 7 -4 12 -3 12 3 0 5 -6 12 -12
14 -8 3 -7 6 4 6 9 1 19 -2 22 -7z m-3164 -18 c0 -3 -11 -15 -24 -25 -48 -38
-93 -123 -95 -181 -1 -10 -8 -18 -16 -18 -13 0 -35 -55 -35 -87 0 -7 -4 -13
-10 -13 -17 0 -11 61 9 104 11 23 24 59 30 81 15 56 45 102 83 125 33 20 58
26 58 14z m397 -16 c-3 -8 -6 -5 -6 6 -1 11 2 17 5 13 3 -3 4 -12 1 -19z
m2491 13 c8 -5 12 -23 10 -47 -3 -34 -6 -39 -28 -39 -22 0 -25 5 -28 39 -3 34
8 56 28 56 3 0 11 -4 18 -9z m-2698 -20 c0 -24 -16 -36 -26 -20 -5 8 -3 9 6 4
9 -5 10 -2 5 14 -4 12 -2 21 4 21 6 0 11 -9 11 -19z m-572 -33 c-2 -35 -7 -43
-23 -43 -16 0 -21 8 -23 43 -3 39 -2 42 23 42 25 0 26 -3 23 -42z m-601 24 c7
-4 11 -26 10 -52 -2 -40 -5 -45 -27 -47 l-25 -3 23 10 c27 11 25 35 -4 35 -22
0 -31 30 -14 50 14 17 20 18 37 7z m3401 -47 c0 -26 -5 -45 -12 -45 -7 0 -10
18 -9 47 2 59 1 55 13 48 5 -3 9 -26 8 -50z m-83 5 c0 -28 -4 -35 -20 -35 -13
0 -21 8 -23 23 -5 34 5 54 25 50 13 -2 18 -13 18 -38z m-4593 -10 c4 -49 -8
-54 -14 -5 -3 31 -1 45 8 45 1 0 4 -18 6 -40z m247 8 c-1 -24 -3 -27 -6 -10
-2 12 -10 22 -16 22 -7 0 -6 4 3 10 21 13 20 14 19 -22z m619 -20 c-1 -51 -2
-51 -5 -10 -2 23 -9 42 -14 42 -6 0 -7 5 -4 10 15 24 25 6 23 -42z m3112 27
c62 -24 100 -50 100 -67 0 -4 -16 -1 -36 7 -55 23 -59 18 -20 -19 20 -18 36
-40 36 -49 0 -8 23 -32 50 -52 48 -35 69 -72 33 -58 -18 7 -20 10 35 -76 50
-79 27 -86 -39 -11 -54 61 -75 90 -65 90 3 0 15 -10 27 -22 l22 -23 -22 40
c-13 22 -46 61 -75 87 -51 47 -55 58 -13 37 22 -12 22 -12 3 9 -10 12 -27 24
-36 27 -12 4 -16 12 -13 25 4 14 -3 24 -27 37 -17 10 -39 23 -48 30 -30 22 18
15 88 -12z m-1643 -11 c1 -18 -2 -23 -9 -16 -6 6 -8 18 -5 26 9 22 12 20 14
-10z m673 -14 c0 -10 -3 -21 -7 -23 -5 -3 -8 8 -8 23 0 15 3 26 8 23 4 -2 7
-13 7 -23z m-571 -12 c-1 -31 -1 -31 -8 -8 -5 14 -6 28 -4 33 9 15 13 6 12
-25z m3016 5 c11 -46 18 -693 9 -913 l-8 -205 -7 125 c-4 69 -7 305 -7 525 0
259 -4 412 -11 435 -15 46 -14 60 3 60 7 0 17 -12 21 -27z m-2787 -16 c2 -18
-2 -29 -13 -33 -24 -9 -39 10 -31 41 9 35 40 30 44 -8z m1662 -79 c0 -61 -3
-108 -6 -105 -4 4 -10 51 -13 104 -6 87 -3 112 17 113 1 0 2 -50 2 -112z
m-2011 35 c-1 -37 -1 -37 -8 -8 -7 28 -5 45 5 45 2 0 3 -17 3 -37z m-2534 -58
c0 -33 -3 -40 -20 -40 -15 0 -21 8 -23 28 -5 39 5 59 25 55 14 -2 18 -13 18
-43z m483 3 c3 -35 1 -38 -22 -38 -32 0 -32 9 -4 45 l22 28 -22 -5 c-12 -4
-22 -2 -22 4 0 5 10 8 23 6 18 -2 23 -10 25 -40z m1809 0 c-57 -76 -69 -141
-42 -217 15 -43 15 -44 -3 -28 -23 21 -42 81 -42 133 0 42 28 98 63 126 37 30
50 21 24 -14z m-1192 -28 c0 -41 -2 -45 -25 -45 -21 0 -26 5 -28 33 -5 47 4
64 30 60 20 -3 23 -9 23 -48z m403 -1 c3 -50 -16 -71 -44 -48 -30 24 -14 102
20 97 17 -2 22 -11 24 -49z m3589 14 c-3 -10 -5 -4 -5 12 0 17 2 24 5 18 2 -7
2 -21 0 -30z m272 23 c7 -8 11 -30 9 -48 -2 -28 -7 -33 -28 -33 -21 0 -26 5
-28 33 -3 31 11 62 28 62 4 0 13 -6 19 -14z m-5152 -28 c-3 -7 -5 -2 -5 12 0
14 2 19 5 13 2 -7 2 -19 0 -25z m706 -41 c8 -6 7 -7 -3 -4 -10 2 -15 17 -16
43 -1 37 -1 38 3 4 3 -19 10 -39 16 -43z m24 21 c-2 -13 -4 -5 -4 17 -1 22 1
32 4 23 2 -10 2 -28 0 -40z m1593 -3 c0 -19 -2 -35 -4 -35 -2 0 -6 16 -8 35
-2 19 0 35 4 35 4 0 8 -16 8 -35z m1730 5 c0 -5 -2 -10 -4 -10 -3 0 -8 5 -11
10 -3 6 -1 10 4 10 6 0 11 -4 11 -10z m1187 -27 c-3 -10 -5 -4 -5 12 0 17 2
24 5 18 2 -7 2 -21 0 -30z m-3257 -3 c-6 -11 -11 -46 -12 -78 -1 -49 4 -68 27
-108 15 -27 37 -59 47 -71 l20 -22 -23 6 c-22 6 -78 43 -71 46 2 1 -8 25 -22
53 -36 72 -32 138 11 186 20 22 36 13 23 -12z m-2208 -82 c3 -23 0 -38 -7 -38
-6 0 -9 16 -7 41 4 33 2 40 -9 33 -10 -6 -10 -3 1 11 16 20 16 20 22 -47z
m3775 20 c-3 -7 -5 -2 -5 12 0 14 2 19 5 13 2 -7 2 -19 0 -25z m1290 10 c-3
-8 -6 -5 -6 6 -1 11 2 17 5 13 3 -3 4 -12 1 -19z m43 12 c0 -5 -2 -10 -4 -10
-3 0 -8 5 -11 10 -3 6 -1 10 4 10 6 0 11 -4 11 -10z m-2555 -51 c0 -24 -5 -34
-15 -34 -16 0 -25 37 -16 62 10 26 31 8 31 -28z m2002 -41 c-2 -18 -4 -6 -4
27 0 33 2 48 4 33 2 -15 2 -42 0 -60z m553 47 c0 -8 -3 -16 -7 -18 -5 -3 -8 5
-8 18 0 13 3 21 8 18 4 -2 7 -10 7 -18z m-5405 -30 c-1 -24 -4 -47 -8 -51 -4
-4 -7 16 -7 44 0 29 3 52 8 52 4 0 7 -20 7 -45z m1810 -15 c0 -41 -2 -45 -25
-45 -21 0 -26 5 -28 33 -5 47 4 64 30 60 20 -3 23 -9 23 -48z m3952 -7 c-3
-10 -5 -4 -5 12 0 17 2 24 5 18 2 -7 2 -21 0 -30z m-5241 -8 c-1 -46 -16 -46
-16 0 0 19 4 35 9 35 4 0 8 -16 7 -35z m4185 -77 c23 -42 48 -79 55 -82 25 -9
15 -29 -11 -24 -14 3 -25 4 -25 3 0 -1 7 -19 15 -38 8 -20 15 -44 15 -53 0
-15 -2 -15 -24 -1 l-23 16 25 -75 c26 -76 25 -97 -4 -73 -16 13 -17 12 -10
-11 5 -14 11 -45 13 -70 l5 -45 -21 19 -21 19 0 -51 c0 -53 -6 -62 -28 -40 -9
9 -12 8 -12 -8 0 -24 -42 -93 -47 -78 -4 13 9 45 38 94 16 26 20 45 16 77 -5
50 5 63 27 31 9 -12 18 -20 20 -17 7 6 -41 235 -54 259 -18 33 -11 35 20 5 16
-16 33 -25 37 -21 4 4 -11 44 -34 89 -23 45 -40 83 -38 85 2 2 11 -11 21 -30
10 -19 19 -28 22 -20 2 7 -12 44 -31 82 -32 64 -33 68 -12 52 13 -9 43 -52 66
-94z m974 67 c0 -36 -2 -40 -25 -40 -20 0 -26 6 -28 28 -5 42 5 59 30 55 20
-3 23 -9 23 -43z m-4275 -47 c0 -28 -2 -49 -4 -47 -8 9 -13 99 -5 99 5 0 9
-23 9 -52z m1041 5 c11 -55 65 -120 132 -157 34 -20 55 -36 47 -36 -16 -1 46
-63 71 -72 8 -3 11 -8 8 -12 -8 -9 -59 11 -83 32 -10 9 -25 32 -33 50 -7 17
-20 32 -28 32 -19 0 -19 -10 1 -38 29 -42 -3 -22 -60 37 -61 65 -101 141 -91
179 8 31 28 23 36 -15z m916 15 c-3 -8 -6 -5 -6 6 -1 11 2 17 5 13 3 -3 4 -12
1 -19z m2020 -30 c-2 -13 -4 -5 -4 17 -1 22 1 32 4 23 2 -10 2 -28 0 -40z
m-2210 20 c-3 -8 -6 -5 -6 6 -1 11 2 17 5 13 3 -3 4 -12 1 -19z m20 0 c-3 -8
-6 -5 -6 6 -1 11 2 17 5 13 3 -3 4 -12 1 -19z m63 18 c0 -3 -4 -8 -10 -11 -5
-3 -10 -1 -10 4 0 6 5 11 10 11 6 0 10 -2 10 -4z m1787 -18 c-3 -8 -6 -5 -6 6
-1 11 2 17 5 13 3 -3 4 -12 1 -19z m-1730 -20 c-3 -8 -6 -5 -6 6 -1 11 2 17 5
13 3 -3 4 -12 1 -19z m-2783 -58 c1 -22 -1 -40 -5 -40 -8 0 -17 78 -10 86 9 8
13 -6 15 -46z m3873 13 c-3 -10 -5 -4 -5 12 0 17 2 24 5 18 2 -7 2 -21 0 -30z
m-960 -10 c-3 -10 -5 -4 -5 12 0 17 2 24 5 18 2 -7 2 -21 0 -30z m-1629 -26
c3 -48 3 -48 -25 -45 -24 3 -28 8 -31 36 -5 47 4 64 30 60 20 -3 23 -10 26
-51z m1371 26 c0 -25 -1 -25 -8 -8 -5 11 -7 23 -4 28 8 14 13 7 12 -20z m878
-20 c-3 -10 -5 -2 -5 17 0 19 2 27 5 18 2 -10 2 -26 0 -35z m-4057 2 c0 -19
-4 -35 -10 -35 -5 0 -10 16 -10 35 0 19 5 35 10 35 6 0 10 -16 10 -35z m3307
3 c-3 -7 -5 -2 -5 12 0 14 2 19 5 13 2 -7 2 -19 0 -25z m60 0 c-3 -7 -5 -2 -5
12 0 14 2 19 5 13 2 -7 2 -19 0 -25z m-117 -23 c0 -19 -4 -35 -10 -35 -9 0
-11 46 -3 63 8 15 13 6 13 -28z m2114 10 c-4 -8 -8 -15 -10 -15 -2 0 -4 7 -4
15 0 8 4 15 10 15 5 0 7 -7 4 -15z m-5056 -44 c-2 -28 -7 -36 -23 -36 -16 0
-20 7 -21 40 l-1 40 4 -37 c3 -24 9 -38 19 -38 18 0 19 51 2 69 -11 10 -9 11
5 5 14 -5 17 -15 15 -43z m4212 24 c0 -8 -3 -16 -7 -18 -5 -3 -8 5 -8 18 0 13
3 21 8 18 4 -2 7 -10 7 -18z m-3477 -51 c62 -42 99 -73 101 -87 3 -12 14 -74
25 -137 67 -368 98 -537 153 -820 33 -173 64 -337 70 -365 5 -27 31 -165 58
-305 27 -140 62 -327 79 -415 17 -88 44 -236 62 -328 37 -197 41 -184 -73
-231 -114 -47 -117 -20 -4 32 l69 32 -7 43 c-8 52 -122 653 -201 1067 -101
522 -130 679 -195 1035 -39 214 -72 390 -73 391 -14 13 -151 103 -153 101 -5
-4 90 -536 115 -647 5 -25 24 -126 41 -225 17 -99 39 -223 50 -275 20 -102 36
-218 21 -165 -4 17 -12 39 -18 50 -10 18 -21 69 -44 195 -4 25 -22 117 -38
205 -17 88 -60 322 -97 520 -36 198 -67 361 -68 362 -2 2 -264 -81 -556 -176
-63 -21 -117 -33 -119 -28 -6 15 11 22 213 87 105 34 250 81 321 105 72 24
139 44 150 44 11 1 64 -29 118 -65z m345 -16 c-1 -72 -2 -76 -7 -33 -6 48 -3
115 5 115 2 0 3 -37 2 -82z m1979 45 c-3 -10 -5 -4 -5 12 0 17 2 24 5 18 2 -7
2 -21 0 -30z m72 10 c0 -25 -1 -25 -8 -8 -5 11 -7 23 -4 28 8 14 13 7 12 -20z
m-319 -15 c0 -17 -3 -28 -7 -25 -9 10 -10 57 -1 57 4 0 8 -14 8 -32z m60 12
c0 -11 -2 -20 -4 -20 -2 0 -6 9 -9 20 -3 11 -1 20 4 20 5 0 9 -9 9 -20z m130
10 c0 -5 -5 -10 -11 -10 -5 0 -7 5 -4 10 3 6 8 10 11 10 2 0 4 -4 4 -10z
m2054 -26 c3 -8 2 -12 -4 -9 -6 3 -10 10 -10 16 0 14 7 11 14 -7z m-2377 -31
c-3 -10 -5 -4 -5 12 0 17 2 24 5 18 2 -7 2 -21 0 -30z m1290 -10 c-3 -10 -5
-4 -5 12 0 17 2 24 5 18 2 -7 2 -21 0 -30z m1396 15 c6 -8 7 -27 3 -42 -9 -38
-50 -33 -54 7 -6 48 28 72 51 35z m-5673 -28 c0 -22 -4 -40 -10 -40 -5 0 -10
18 -10 40 0 22 5 40 10 40 6 0 10 -18 10 -40z m3177 -17 c-3 -10 -5 -2 -5 17
0 19 2 27 5 18 2 -10 2 -26 0 -35z m201 20 c-3 -26 -28 -46 -28 -23 0 6 5 8
10 5 6 -3 10 3 10 14 0 10 -6 22 -12 24 -8 3 -5 6 5 6 14 1 18 -5 15 -26z m62
2 c0 -14 -2 -25 -4 -25 -2 0 -6 11 -8 25 -3 14 -1 25 3 25 5 0 9 -11 9 -25z
m-686 -4 c9 -10 19 -34 23 -53 3 -25 10 -35 22 -34 13 1 17 -13 21 -74 3 -41
10 -84 17 -95 11 -18 12 -18 13 -2 0 9 5 17 10 17 6 0 10 -11 10 -25 0 -56 22
-127 41 -132 16 -4 19 -13 17 -44 -2 -39 -2 -39 -45 -39 -30 0 -49 -6 -63 -20
-11 -11 -22 -20 -25 -20 -3 0 -5 21 -5 48 0 26 -14 99 -31 162 -20 77 -32 151
-36 223 -6 110 -1 124 31 88z m366 -26 c0 -19 -4 -35 -8 -35 -4 0 -8 16 -8 35
0 19 4 35 8 35 4 0 8 -16 8 -35z m-1040 -100 c0 -70 -4 -115 -10 -115 -6 0
-10 43 -10 108 0 95 4 122 17 122 2 0 3 -52 3 -115z m909 68 l-2 -48 -6 40
c-7 38 -5 55 5 55 2 0 3 -21 3 -47z m318 10 c-3 -10 -5 -4 -5 12 0 17 2 24 5
18 2 -7 2 -21 0 -30z m2072 -5 l-2 -43 -6 35 c-7 33 -5 50 5 50 2 0 3 -19 3
-42z m-3576 -30 c9 -6 9 -8 0 -8 -9 0 -14 -19 -15 -57 -1 -54 -2 -55 -5 -13
-3 24 -10 48 -16 52 -9 6 -9 8 1 8 7 0 12 6 11 13 -1 6 0 26 1 42 l3 30 4 -30
c3 -16 10 -33 16 -37z m1257 32 c0 -16 -4 -30 -10 -30 -5 0 -10 14 -10 30 0
17 5 30 10 30 6 0 10 -13 10 -30z m2144 22 c2 -4 -4 -8 -14 -8 -10 0 -16 4
-14 8 3 4 9 8 14 8 5 0 11 -4 14 -8z m-1946 -38 c-1 -9 -8 -19 -14 -21 -11 -4
-16 22 -8 46 7 21 27 -2 22 -25z m-2595 -35 c-4 -4 -7 6 -6 24 2 44 5 47 10
13 3 -16 1 -32 -4 -37z m2774 24 c-3 -10 -5 -4 -5 12 0 17 2 24 5 18 2 -7 2
-21 0 -30z m-627 17 c0 -5 -4 -10 -10 -10 -5 0 -10 5 -10 10 0 6 5 10 10 10 6
0 10 -4 10 -10z m570 -20 c0 -16 -5 -30 -10 -30 -14 0 -24 26 -16 45 10 26 26
16 26 -15z m127 8 c-3 -8 -6 -5 -6 6 -1 11 2 17 5 13 3 -3 4 -12 1 -19z m-577
-18 c0 -16 -4 -30 -8 -30 -5 0 -9 14 -9 30 0 17 4 30 9 30 4 0 8 -13 8 -30z
m259 -17 c1 -7 -3 -13 -7 -13 -5 0 -9 15 -9 33 -1 26 1 28 7 12 5 -11 9 -26 9
-32z m-319 7 c0 -16 -4 -30 -10 -30 -11 0 -14 43 -3 53 11 12 13 8 13 -23z
m250 -10 c0 -39 -15 -39 -16 0 -1 17 3 30 7 30 5 0 9 -13 9 -30z m187 -7 c-3
-10 -5 -4 -5 12 0 17 2 24 5 18 2 -7 2 -21 0 -30z m-247 -19 c0 -13 -4 -24
-10 -24 -5 0 -10 14 -10 31 0 17 4 28 10 24 6 -3 10 -17 10 -31z m-1655 -19
c0 -36 -2 -40 -25 -40 -20 0 -26 6 -28 28 -5 42 5 59 30 55 20 -3 23 -9 23
-43z m1853 18 c-4 -39 -28 -42 -28 -4 0 21 5 31 16 31 11 0 14 -8 12 -27z
m179 -20 c-3 -10 -5 -2 -5 17 0 19 2 27 5 18 2 -10 2 -26 0 -35z m-2377 0 c0
-32 -5 -28 -14 10 -4 19 -3 26 4 22 5 -3 10 -18 10 -32z m1930 7 c0 -16 -2
-30 -4 -30 -2 0 -6 14 -8 30 -3 17 -1 30 4 30 4 0 8 -13 8 -30z m390 2 c0 -15
-2 -15 -10 -2 -8 12 -10 10 -10 -8 0 -15 4 -21 12 -16 7 4 8 3 4 -5 -4 -6 -12
-9 -17 -6 -10 7 -12 48 -3 58 10 10 24 -2 24 -21z m-3170 4 c0 -13 -28 -26
-57 -26 -23 0 -13 18 15 28 37 14 42 14 42 -2z m2724 -28 c4 -20 3 -28 -7 -28
-11 0 -16 35 -8 59 2 8 8 -4 15 -31z m255 0 c0 -31 -1 -31 -10 -10 -5 13 -7
28 -3 33 10 16 14 9 13 -23z m2189 -20 c-1 -51 -2 -51 -5 -10 -2 23 -9 42 -16
42 -7 0 -6 4 3 10 8 5 16 10 18 10 1 0 1 -24 0 -52z m-2071 5 c-3 -10 -5 -4
-5 12 0 17 2 24 5 18 2 -7 2 -21 0 -30z m1899 1 c1 -29 1 -29 -3 -1 -6 40 -23
33 -24 -10 -2 -32 -3 -33 -6 -10 -3 16 -2 35 1 44 10 24 31 9 32 -23z m-2336
-4 c0 -16 -4 -30 -10 -30 -5 0 -10 14 -10 30 0 17 5 30 10 30 6 0 10 -13 10
-30z m-2770 10 c0 -12 -48 -25 -58 -16 -8 9 18 26 41 26 9 0 17 -4 17 -10z
m3020 -20 c0 -16 -3 -30 -7 -30 -5 0 -8 14 -8 30 0 17 3 30 8 30 4 0 7 -13 7
-30z m-3110 -5 c0 -8 -7 -15 -15 -15 -16 0 -20 12 -8 23 11 12 23 8 23 -8z
m660 5 c0 -5 -5 -10 -11 -10 -5 0 -7 5 -4 10 3 6 8 10 11 10 2 0 4 -4 4 -10z
m2386 -20 c1 -17 -3 -30 -7 -30 -5 0 -9 14 -9 30 0 39 15 39 16 0z m204 26 c0
-11 -19 -15 -25 -6 -3 5 1 10 9 10 9 0 16 -2 16 -4z m250 -6 c0 -5 -2 -10 -4
-10 -3 0 -8 5 -11 10 -3 6 -1 10 4 10 6 0 11 -4 11 -10z m-2431 -43 c1 -5 -3
-5 -9 -2 -5 3 -10 16 -9 28 0 21 1 21 9 2 5 -11 9 -24 9 -28z m2301 13 c0 -16
-5 -30 -10 -30 -14 0 -24 26 -16 45 10 26 26 16 26 -15z m60 5 c0 -14 -2 -25
-4 -25 -2 0 -6 11 -8 25 -3 14 -1 25 3 25 5 0 9 -11 9 -25z m-442 -12 c-4 -37
-23 -40 -23 -3 0 18 5 30 13 30 9 0 12 -10 10 -27z m309 -20 c-3 -10 -5 -4 -5
12 0 17 2 24 5 18 2 -7 2 -21 0 -30z m-2777 21 c0 -8 -19 -13 -24 -6 -3 5 1 9
9 9 8 0 15 -2 15 -3z m2405 -24 c0 -13 -6 -25 -12 -27 -9 -3 -13 6 -13 27 0
21 4 30 13 28 6 -3 12 -15 12 -28z m320 0 c0 -13 -6 -25 -12 -27 -9 -3 -13 6
-13 27 0 21 4 30 13 28 6 -3 12 -15 12 -28z m-1865 -15 c0 -19 -4 -35 -9 -35
-4 0 -6 11 -3 25 2 15 0 25 -7 25 -7 0 -9 5 -6 10 13 21 25 9 25 -25z m1799 8
c0 -25 -1 -26 -9 -8 -12 27 -12 35 0 35 6 0 10 -12 9 -27z m461 7 c0 -11 -2
-20 -4 -20 -2 0 -6 9 -9 20 -3 11 -1 20 4 20 5 0 9 -9 9 -20z m-2987 -41 c-6
-6 -7 3 -4 23 4 28 6 29 9 9 2 -13 0 -27 -5 -32z m2457 16 c0 -19 -3 -35 -7
-35 -5 0 -7 15 -6 32 2 39 2 38 8 38 3 0 5 -16 5 -35z m2537 3 c-3 -7 -5 -2
-5 12 0 14 2 19 5 13 2 -7 2 -19 0 -25z m-3852 -28 c0 -41 -2 -45 -25 -45 -21
0 -26 5 -28 33 -5 47 4 64 30 60 20 -3 23 -9 23 -48z m1255 5 c0 -37 -15 -37
-16 0 0 19 3 32 8 29 4 -3 8 -16 8 -29z m390 -1 c0 -13 -4 -24 -9 -24 -4 0 -6
12 -3 26 4 20 2 25 -8 19 -9 -5 -11 -4 -6 4 11 17 26 3 26 -25z m60 6 c0 -16
-3 -30 -7 -30 -5 0 -8 14 -8 30 0 17 3 30 8 30 4 0 7 -13 7 -30z m1696 -16 l1
-39 -4 38 c-5 46 -28 45 -28 -1 0 -16 -3 -28 -7 -25 -12 7 -9 48 4 61 20 20
33 8 34 -34z m-3129 -26 c-2 -13 -4 -3 -4 22 0 25 2 35 4 23 2 -13 2 -33 0
-45z m1303 42 c0 -11 -4 -20 -10 -20 -5 0 -10 9 -10 20 0 11 5 20 10 20 6 0
10 -9 10 -20z m-3203 -22 c-3 -7 -5 -2 -5 12 0 14 2 19 5 13 2 -7 2 -19 0 -25z
m910 0 c-3 -7 -5 -2 -5 12 0 14 2 19 5 13 2 -7 2 -19 0 -25z m1908 -3 c0 -16
-6 -30 -12 -32 -9 -3 -13 7 -13 32 0 25 4 35 13 33 6 -3 12 -17 12 -33z m318
15 c3 -11 1 -20 -4 -20 -5 0 -9 9 -9 20 0 11 2 20 4 20 2 0 6 -9 9 -20z m1660
2 c13 -15 16 -40 16 -133 0 -62 3 -145 6 -184 5 -50 3 -82 -7 -111 -13 -35
-13 -43 -1 -50 13 -9 65 -204 67 -253 1 -20 -9 -26 -84 -51 -47 -15 -87 -26
-89 -25 -8 9 11 22 59 40 29 11 55 26 57 32 7 17 -49 213 -60 213 -5 0 -7 -9
-4 -20 3 -11 2 -18 -3 -15 -4 3 -11 -7 -16 -23 -7 -25 -8 -23 -15 23 -7 38 -5
60 8 90 11 28 17 80 20 170 3 119 2 128 -11 105 -9 -14 -15 -32 -16 -41 0 -25
-31 -80 -41 -73 -5 3 -5 12 0 22 27 51 50 136 41 153 -12 22 -13 39 -1 21 6
-10 11 -6 19 17 15 42 3 41 -82 -9 -37 -22 -70 -40 -73 -40 -3 0 -18 -9 -33
-20 -20 -14 -31 -17 -36 -9 -3 6 -2 14 3 18 101 67 183 126 183 133 0 4 -6 8
-13 8 -19 0 -142 -36 -166 -50 -12 -6 -27 -9 -34 -7 -16 6 71 46 148 68 81 24
137 24 158 1z m-1727 -34 c-14 -9 -20 7 -11 30 6 15 8 15 15 -3 4 -12 3 -23
-4 -27z m2152 3 c2 -18 -1 -38 -6 -43 -6 -6 -9 5 -8 29 1 28 -3 38 -14 38 -20
0 -25 -42 -8 -62 11 -14 11 -15 -2 -11 -16 5 -25 50 -16 75 4 8 15 13 28 11
18 -2 24 -11 26 -37z m-2468 -7 c0 -21 -4 -33 -10 -29 -5 3 -10 19 -10 36 0
16 5 29 10 29 6 0 10 -16 10 -36z m258 -12 c-18 -8 -25 4 -15 28 l10 25 6 -25
c4 -14 4 -26 -1 -28z m-3125 18 c-3 -12 -8 -19 -11 -16 -5 6 5 36 12 36 2 0 2
-9 -1 -20z m20 -31 c-6 -6 -7 3 -4 23 4 28 6 29 9 9 2 -13 0 -27 -5 -32z m677
41 c-20 -13 -43 -13 -35 0 3 6 16 10 28 10 18 0 19 -2 7 -10z m-80 -30 c-19
-12 -30 -12 -30 -1 0 10 31 20 40 14 2 -2 -2 -8 -10 -13z m2444 3 c7 -18 -9
-41 -21 -29 -4 4 -1 11 7 16 10 7 11 10 3 10 -7 0 -13 5 -13 10 0 16 17 11 24
-7z m-2027 -25 c-3 -7 -5 -2 -5 12 0 14 2 19 5 13 2 -7 2 -19 0 -25z m308 -8
c0 -31 -3 -35 -25 -35 -19 0 -26 6 -28 23 -5 36 5 54 30 50 19 -2 23 -9 23
-38z m1910 20 c-101 -20 -208 -58 -274 -97 -43 -25 -43 -25 -39 -74 3 -27 4
-49 2 -49 -8 0 -22 72 -17 90 13 50 270 149 388 148 17 0 -10 -8 -60 -18z
m-2716 -21 c-20 -13 -29 -11 -29 5 0 16 33 27 39 13 2 -5 -3 -13 -10 -18z
m2461 7 c0 -14 -4 -28 -10 -31 -6 -4 -10 7 -10 24 0 17 5 31 10 31 6 0 10 -11
10 -24z m2000 -1 c0 -8 -6 -15 -14 -15 -17 0 -28 14 -19 24 12 12 33 6 33 -9z
m-2062 -27 c-3 -34 -20 -42 -26 -13 -5 22 5 45 18 45 7 0 10 -14 8 -32z
m-2468 7 c0 -8 -4 -15 -9 -15 -5 0 -16 -3 -25 -6 -10 -4 -16 -1 -16 9 0 15 14
25 38 26 6 1 12 -6 12 -14z m1549 -42 l-1 -48 -10 34 c-5 18 -7 40 -4 47 10
27 16 14 15 -33z m1280 7 c0 -10 -3 -8 -9 5 -12 27 -12 43 0 25 5 -8 9 -22 9
-30z m-3282 -2 c-3 -7 -5 -2 -5 12 0 14 2 19 5 13 2 -7 2 -19 0 -25z m370 7
c-4 -8 -13 -15 -22 -15 -21 0 -19 28 3 32 22 5 26 2 19 -17z m660 -7 c-3 -8
-6 -5 -6 6 -1 11 2 17 5 13 3 -3 4 -12 1 -19z m703 -40 c0 -42 -20 -59 -45
-38 -16 13 -21 75 -7 84 5 3 8 -14 8 -37 -1 -31 3 -42 14 -42 20 0 26 61 8 83
-12 15 -11 16 5 3 11 -9 17 -27 17 -53z m-1442 25 c-4 -22 -48 -31 -48 -10 0
19 10 27 32 27 13 0 18 -6 16 -17z m2812 -14 c0 -11 -4 -17 -10 -14 -5 3 -10
15 -10 26 0 11 5 17 10 14 6 -3 10 -15 10 -26z m587 -6 c-3 -10 -5 -4 -5 12 0
17 2 24 5 18 2 -7 2 -21 0 -30z m73 6 c0 -10 -3 -19 -7 -19 -5 0 -8 11 -8 24
0 13 3 22 8 19 4 -2 7 -13 7 -24z m1031 -51 c-17 -35 -28 -52 -24 -38 10 43
43 113 49 107 4 -3 -8 -34 -25 -69z m524 22 c0 -41 -2 -45 -25 -45 -21 0 -26
5 -28 33 -5 47 4 64 30 60 20 -3 23 -9 23 -48z m-5118 15 c-7 -17 -47 -21 -47
-5 0 11 41 31 49 24 2 -2 1 -10 -2 -19z m2858 4 c4 -11 4 -23 0 -27 -7 -7 -25
17 -25 36 0 20 18 14 25 -9z m243 -14 c-3 -3 -9 2 -12 12 -6 14 -5 15 5 6 7
-7 10 -15 7 -18z m-2249 -35 c0 -9 -4 -8 -9 5 -5 11 -9 27 -9 35 0 9 4 8 9 -5
5 -11 9 -27 9 -35z m269 13 c-1 -37 -1 -37 -5 -5 -2 17 -8 32 -13 32 -5 0 -11
-15 -13 -32 -4 -32 -4 -32 -5 5 -2 31 1 37 18 37 17 0 20 -6 18 -37z m4267 -8
c0 -36 -3 -40 -25 -40 -27 0 -36 20 -26 61 5 19 12 25 29 22 18 -3 22 -9 22
-43z m-5477 18 c-4 -23 -48 -31 -48 -10 0 9 6 18 13 20 25 11 38 7 35 -10z
m3012 -26 c0 -18 -2 -19 -10 -7 -13 20 -13 43 0 35 6 -3 10 -16 10 -28z
m-3102 6 c-4 -23 -48 -31 -48 -9 0 13 14 21 43 25 5 0 7 -7 5 -16z m2852 2
c-14 -7 -47 -17 -75 -21 -69 -9 -192 -73 -143 -74 7 0 32 -35 56 -78 23 -42
59 -99 79 -127 31 -42 37 -46 43 -30 6 16 7 16 13 2 3 -8 1 -18 -6 -20 -21 -7
23 -46 57 -49 l31 -4 -35 -8 c-20 -4 -47 -3 -62 3 -38 14 -107 106 -167 221
l-51 98 30 26 c31 25 49 32 165 59 79 19 95 19 65 2z m947 -32 c-3 -10 -5 -2
-5 17 0 19 2 27 5 18 2 -10 2 -26 0 -35z m-744 17 c3 -11 1 -23 -4 -26 -5 -3
-9 -1 -9 5 0 5 -3 16 -6 25 -3 9 -2 16 4 16 5 0 12 -9 15 -20z m557 -5 c0 -14
-2 -25 -4 -25 -2 0 -6 11 -8 25 -3 14 -1 25 3 25 5 0 9 -11 9 -25z m-1633 -37
c-2 -13 -4 -5 -4 17 -1 22 1 32 4 23 2 -10 2 -28 0 -40z m-2077 33 c0 -6 -4
-13 -10 -16 -5 -3 -10 1 -10 9 0 9 5 16 10 16 6 0 10 -4 10 -9z m796 -27 c1
-29 1 -29 -3 -1 -5 33 -23 36 -24 5 0 -13 -3 -17 -6 -10 -7 19 5 44 20 40 6
-3 12 -18 13 -34z m341 -21 c-3 -10 -5 -4 -5 12 0 17 2 24 5 18 2 -7 2 -21 0
-30z m1784 15 c6 -13 13 -24 14 -26 1 -1 14 2 29 7 17 7 26 7 26 1 0 -6 -7
-10 -15 -10 -9 0 -19 -8 -23 -19 -6 -16 -11 -12 -34 25 -15 24 -23 44 -18 44
5 0 15 -10 21 -22z m305 -16 c-9 -8 -26 10 -26 26 1 15 2 15 15 -2 8 -11 13
-21 11 -24z m197 8 c3 -11 1 -18 -4 -14 -5 3 -9 12 -9 20 0 20 7 17 13 -6z
m-249 -6 c9 -22 -3 -32 -14 -14 -12 19 -12 30 -1 30 5 0 12 -7 15 -16z m2818
-26 c-16 -16 -35 3 -26 26 6 16 8 16 22 2 13 -12 14 -18 4 -28z m-3132 -3 c0
-5 -5 -3 -10 5 -5 8 -10 20 -10 25 0 6 5 3 10 -5 5 -8 10 -19 10 -25z m785 7
c0 -31 -19 -28 -23 4 -3 18 0 25 10 22 7 -3 13 -14 13 -26z m75 -2 c0 -23 -16
-35 -26 -19 -5 8 -3 9 6 4 10 -6 12 -1 8 18 -3 15 -1 24 3 21 5 -3 9 -14 9
-24z m120 5 c0 -14 -2 -25 -4 -25 -2 0 -6 11 -8 25 -3 14 -1 25 3 25 5 0 9
-11 9 -25z m57 -12 c-3 -10 -5 -4 -5 12 0 17 2 24 5 18 2 -7 2 -21 0 -30z
m-1078 -13 c0 -10 -3 -8 -9 5 -12 27 -12 43 0 25 5 -8 9 -22 9 -30z m1138 18
c-3 -8 -6 -5 -6 6 -1 11 2 17 5 13 3 -3 4 -12 1 -19z m60 -10 c-3 -8 -6 -5 -6
6 -1 11 2 17 5 13 3 -3 4 -12 1 -19z m1013 7 c0 -8 -4 -15 -10 -15 -5 0 -10 7
-10 15 0 8 5 15 10 15 6 0 10 -7 10 -15z m350 -115 l-5 -45 -3 43 c-2 23 -8
42 -15 42 -8 0 -8 3 1 12 7 7 13 28 14 48 1 32 1 32 7 -10 3 -25 4 -65 1 -90z
m-2137 100 c3 -11 1 -20 -4 -20 -5 0 -9 2 -9 4 0 2 -3 11 -6 20 -3 9 -2 16 4
16 5 0 12 -9 15 -20z m205 -15 c-3 -3 -9 2 -12 12 -6 14 -5 15 5 6 7 -7 10
-15 7 -18z m1407 16 c3 -5 1 -12 -5 -16 -5 -3 -10 1 -10 9 0 18 6 21 15 7z
m-3696 -44 c1 -5 -3 -5 -9 -2 -5 3 -10 16 -9 28 0 21 1 21 9 2 5 -11 9 -24 9
-28z m918 -19 c-2 -13 -4 -3 -4 22 0 25 2 35 4 23 2 -13 2 -33 0 -45z m1123
36 c0 -8 -4 -12 -10 -9 -5 3 -10 13 -10 21 0 8 5 12 10 9 6 -3 10 -13 10 -21z
m-320 -4 c6 -11 8 -20 6 -20 -3 0 -10 9 -16 20 -6 11 -8 20 -6 20 3 0 10 -9
16 -20z m-1083 -50 c-1 -27 -7 -50 -12 -50 -6 0 -9 17 -7 40 3 26 0 40 -8 40
-6 0 -8 5 -5 10 3 6 12 10 20 10 10 0 13 -13 12 -50z m1047 34 c10 -25 -1 -29
-14 -5 -6 12 -7 21 -1 21 5 0 12 -7 15 -16z m801 -12 c0 -31 -19 -28 -23 4 -3
18 0 25 10 22 7 -3 13 -14 13 -26z m72 -3 c1 -19 1 -20 -4 -4 -3 11 -10 24
-17 28 -7 6 -6 7 4 4 8 -2 16 -14 17 -28z m183 6 c0 -14 -2 -25 -4 -25 -2 0
-6 11 -8 25 -3 14 -1 25 3 25 5 0 9 -11 9 -25z m-630 -13 c0 -15 -2 -15 -10
-2 -13 20 -13 33 0 25 6 -3 10 -14 10 -23z m487 6 c-3 -8 -6 -5 -6 6 -1 11 2
17 5 13 3 -3 4 -12 1 -19z m638 13 c6 -10 -115 -101 -134 -101 -25 0 -8 21 52
63 67 49 73 52 82 38z m-3587 -42 c-3 -20 -5 -19 -9 9 -3 20 -2 29 4 23 5 -5
7 -19 5 -32z m1471 -1 l-2 -43 -6 35 c-7 33 -5 50 5 50 2 0 3 -19 3 -42z m947
4 c-9 -8 -26 10 -26 26 1 15 2 15 15 -2 8 -11 13 -21 11 -24z m1604 28 c0 -5
-5 -10 -11 -10 -5 0 -7 5 -4 10 3 6 8 10 11 10 2 0 4 -4 4 -10z m-1926 -26 c3
-8 2 -12 -4 -9 -6 3 -10 10 -10 16 0 14 7 11 14 -7z m-1734 -19 c0 -14 -2 -25
-4 -25 -2 0 -6 11 -8 25 -3 14 -1 25 3 25 5 0 9 -11 9 -25z m1700 -10 c0 -5
-5 -3 -10 5 -5 8 -10 20 -10 25 0 6 5 3 10 -5 5 -8 10 -19 10 -25z m424 -1 c3
-8 2 -12 -4 -9 -6 3 -10 10 -10 16 0 14 7 11 14 -7z m2698 -41 c7 -9 7 -18 -2
-28 -20 -24 -30 -5 -22 45 5 33 7 38 10 20 2 -14 9 -31 14 -37z m-2748 31 c10
-25 -1 -29 -14 -5 -6 12 -7 21 -1 21 5 0 12 -7 15 -16z m405 -11 c-2 -28 -2
-28 -7 -3 l-5 25 -8 -25 -7 -25 -1 28 c-1 18 4 27 14 27 10 0 15 -9 14 -27z
m61 2 c0 -14 -2 -25 -4 -25 -2 0 -6 11 -8 25 -3 14 -1 25 3 25 5 0 9 -11 9
-25z m117 -12 c-3 -10 -5 -4 -5 12 0 17 2 24 5 18 2 -7 2 -21 0 -30z m73 22
c0 -8 -2 -15 -4 -15 -2 0 -6 7 -10 15 -3 8 -1 15 4 15 6 0 10 -7 10 -15z m60
5 c5 7 8 2 8 -14 0 -24 -2 -25 -14 -9 -7 10 -13 23 -13 28 0 6 3 4 6 -4 4 -10
7 -10 13 -1z m-1880 -40 c0 -22 -2 -40 -4 -40 -2 0 -6 18 -8 40 -2 22 0 40 4
40 5 0 8 -18 8 -40z m987 23 c4 -10 14 -24 22 -31 9 -8 10 -11 4 -7 -8 4 -13
-1 -13 -14 0 -14 5 -19 15 -15 11 5 14 0 11 -17 -2 -13 1 -33 7 -43 7 -14 6
-22 -5 -30 -13 -10 -13 -13 -2 -24 8 -7 14 -24 14 -37 0 -28 20 -45 21 -18 1
10 6 -2 13 -27 9 -33 17 -44 29 -42 12 2 17 -4 17 -19 0 -41 23 -88 44 -91 15
-2 21 -11 22 -29 1 -14 4 -32 9 -39 11 -17 25 6 25 43 0 15 5 27 10 27 12 0
12 0 15 -72 1 -31 8 -65 16 -74 13 -16 14 -15 20 12 3 16 2 36 -1 44 -10 21 0
92 13 87 5 -1 11 -34 13 -71 2 -38 5 -70 8 -73 2 -2 26 6 52 19 38 18 49 28
48 46 0 12 3 22 8 22 4 0 8 -7 8 -15 0 -19 9 -19 32 2 10 9 21 13 25 10 16
-17 -158 -115 -219 -123 -42 -6 -46 -4 -78 32 -42 48 -130 183 -161 246 -17
35 -30 49 -51 53 -15 4 -30 11 -34 16 -3 5 -2 68 2 139 5 101 10 130 21 130 7
0 17 -8 20 -17z m690 -5 c-3 -8 -6 -5 -6 6 -1 11 2 17 5 13 3 -3 4 -12 1 -19z
m-823 -4 c3 -8 2 -12 -4 -9 -6 3 -10 10 -10 16 0 14 7 11 14 -7z m-34 -29 c0
-5 -5 -3 -10 5 -5 8 -10 20 -10 25 0 6 5 3 10 -5 5 -8 10 -19 10 -25z m-1718
-10 c3 -14 1 -25 -3 -25 -5 0 -9 11 -9 25 0 14 2 25 4 25 2 0 6 -11 8 -25z
m1108 -25 c0 -25 -5 -40 -12 -40 -8 0 -13 15 -13 40 -1 26 3 40 12 40 8 0 13
-14 13 -40z m-1923 -2 c-3 -7 -5 -2 -5 12 0 14 2 19 5 13 2 -7 2 -19 0 -25z
m446 -26 c-17 -27 -38 -20 -39 13 -1 30 -1 30 3 2 6 -40 28 -28 27 14 -2 32
-1 32 9 11 8 -17 8 -29 0 -40z m975 1 c-2 -57 -2 -57 -5 -10 -2 26 -9 47 -14
47 -6 0 -7 5 -4 10 15 25 25 5 23 -47z m1862 27 c0 -25 -18 -36 -26 -16 -8 21
3 49 16 41 5 -3 10 -15 10 -25z m-3495 -14 c0 -19 -3 -32 -7 -29 -14 8 -8 63
6 63 1 0 1 -15 1 -34z m35 -1 c0 -19 -4 -35 -8 -35 -4 0 -6 16 -4 35 2 19 6
35 8 35 2 0 4 -16 4 -35z m2774 19 c3 -8 2 -12 -4 -9 -6 3 -10 10 -10 16 0 14
7 11 14 -7z m803 -21 c-3 -10 -5 -4 -5 12 0 17 2 24 5 18 2 -7 2 -21 0 -30z
m133 12 c0 -14 -2 -25 -4 -25 -2 0 -6 11 -8 25 -3 14 -1 25 3 25 5 0 9 -11 9
-25z m1489 -12 l-2 -38 -7 35 c-5 28 -8 31 -14 18 -5 -10 -6 -25 -2 -33 3 -8
1 -15 -4 -15 -11 0 -14 53 -3 63 18 19 33 5 32 -30z m-1677 -5 c-8 -8 -9 -4
-5 13 4 13 8 18 11 10 2 -7 -1 -18 -6 -23z m-2085 -30 c-3 -7 -5 -2 -5 12 0
14 2 19 5 13 2 -7 2 -19 0 -25z m3550 10 c-3 -8 -6 -5 -6 6 -1 11 2 17 5 13 3
-3 4 -12 1 -19z m-5127 -3 c0 -8 -5 -15 -11 -15 -5 0 -8 4 -4 9 3 5 -5 12 -17
14 -20 4 -19 4 5 6 18 1 27 -4 27 -14z m1149 -28 c-1 -31 -1 -31 -9 -7 -11 36
-11 52 0 45 6 -3 10 -21 9 -38z m2188 -115 c2 -134 1 -142 -17 -142 -17 0 -19
7 -17 55 2 30 0 55 -4 55 -4 0 -4 12 0 27 4 16 4 46 0 67 -8 45 5 90 24 83 9
-3 13 -43 14 -145z m-59 115 c2 -10 -3 -17 -12 -17 -10 0 -16 9 -16 21 0 24
23 21 28 -4z m182 3 c0 -11 -4 -20 -9 -20 -5 0 -7 9 -4 20 3 11 7 20 9 20 2 0
4 -9 4 -20z m57 -12 c-3 -7 -5 -2 -5 12 0 14 2 19 5 13 2 -7 2 -19 0 -25z m80
6 c2 -13 1 -15 -4 -4 -3 8 -11 19 -17 23 -7 6 -6 7 4 4 8 -2 16 -12 17 -23z
m68 -4 c0 -13 -6 -24 -13 -26 -7 -1 -8 0 -2 3 5 2 10 13 10 23 0 10 -5 21 -10
23 -6 3 -5 4 2 3 7 -2 13 -13 13 -26z m52 -7 c-3 -10 -5 -4 -5 12 0 17 2 24 5
18 2 -7 2 -21 0 -30z m68 27 c3 -5 1 -10 -4 -10 -6 0 -11 5 -11 10 0 6 2 10 4
10 3 0 8 -4 11 -10z m553 3 c-11 -3 -18 -15 -19 -31 -1 -18 -3 -21 -6 -9 -7
27 4 47 24 46 17 -1 17 -2 1 -6z m-938 -18 c0 -8 -4 -15 -10 -15 -5 0 -7 7 -4
15 4 8 8 15 10 15 2 0 4 -7 4 -15z m957 -17 c-3 -8 -6 -5 -6 6 -1 11 2 17 5
13 3 -3 4 -12 1 -19z m-2115 -13 c-8 -54 -32 -57 -32 -4 0 24 4 30 18 27 10
-2 16 -11 14 -23z m3685 -87 c-2 -24 -4 -7 -4 37 0 44 2 63 4 43 2 -21 2 -57
0 -80z m-595 50 c2 -22 0 -38 -7 -38 -5 0 -9 17 -9 38 3 69 9 69 16 0z m-2235
10 c-3 -7 -5 -2 -5 12 0 14 2 19 5 13 2 -7 2 -19 0 -25z m174 -9 c-8 -21 -10
-22 -16 -6 -10 23 2 54 16 40 6 -6 6 -18 0 -34z m129 -1 c0 -5 -4 -8 -10 -8
-5 0 -10 10 -10 23 0 18 2 19 10 7 5 -8 10 -18 10 -22z m60 12 c0 -11 -4 -20
-8 -20 -4 0 -8 9 -8 20 0 11 4 20 8 20 4 0 8 -9 8 -20z m64 -10 c-6 -6 -10 -3
-10 10 0 13 4 16 10 10 7 -7 7 -13 0 -20z m-2360 4 c9 -23 7 -44 -3 -44 -5 0
-11 14 -13 30 -5 32 6 41 16 14z m2621 6 c3 -5 1 -10 -4 -10 -6 0 -11 5 -11
10 0 6 2 10 4 10 3 0 8 -4 11 -10z m-195 -10 c0 -5 -5 -10 -11 -10 -5 0 -7 5
-4 10 3 6 8 10 11 10 2 0 4 -4 4 -10z m-2393 -32 c-3 -7 -5 -2 -5 12 0 14 2
19 5 13 2 -7 2 -19 0 -25z m2013 -18 c0 -11 -4 -20 -8 -20 -4 0 -8 9 -9 20 -1
11 2 20 8 20 5 0 9 -9 9 -20z m60 -5 c0 -14 -4 -25 -10 -25 -5 0 -10 11 -10
25 0 14 5 25 10 25 6 0 10 -11 10 -25z m117 -12 c-3 -10 -5 -4 -5 12 0 17 2
24 5 18 2 -7 2 -21 0 -30z m73 27 c0 -5 -2 -10 -4 -10 -3 0 -8 5 -11 10 -3 6
-1 10 4 10 6 0 11 -4 11 -10z m63 -10 c3 -11 1 -20 -4 -20 -5 0 -9 9 -9 20 0
11 2 20 4 20 2 0 6 -9 9 -20z m74 4 c3 -8 0 -21 -7 -27 -10 -10 -12 -7 -7 10
2 12 0 24 -7 27 -7 3 -7 5 2 5 7 1 15 -6 19 -15z m71 -6 c-3 -25 -20 -28 -26
-6 -2 9 0 8 7 -2 9 -13 11 -13 11 2 0 9 -6 19 -12 21 -8 3 -5 6 5 6 14 1 18
-5 15 -21z m-1436 -28 c2 -23 -1 -40 -7 -40 -7 0 -12 57 -6 78 4 12 10 -5 13
-38z m2118 30 c0 -5 -2 -10 -4 -10 -3 0 -8 5 -11 10 -3 6 -1 10 4 10 6 0 11
-4 11 -10z m-1200 -20 c0 -5 -5 -10 -11 -10 -5 0 -7 5 -4 10 3 6 8 10 11 10 2
0 4 -4 4 -10z m310 0 c0 -5 -5 -10 -11 -10 -5 0 -7 5 -4 10 3 6 8 10 11 10 2
0 4 -4 4 -10z m857 -22 c-3 -7 -5 -2 -5 12 0 14 2 19 5 13 2 -7 2 -19 0 -25z
m1385 2 c3 -16 1 -30 -4 -30 -4 0 -8 14 -8 30 0 17 2 30 4 30 2 0 6 -13 8 -30z
m-4518 -6 c6 -24 2 -43 -8 -33 -11 10 -17 59 -8 59 5 0 13 -12 16 -26z m36
-10 c0 -14 -4 -22 -10 -19 -5 3 -10 17 -10 31 0 14 4 22 10 19 6 -3 10 -17 10
-31z m3130 16 c0 -11 -4 -20 -9 -20 -5 0 -7 9 -4 20 3 11 7 20 9 20 2 0 4 -9
4 -20z m718 7 c14 -16 -20 -77 -43 -77 -8 0 -15 -4 -15 -9 0 -6 -12 -6 -27 -2
-16 4 -35 6 -43 4 -8 -3 7 10 34 27 26 17 51 40 53 51 6 22 26 25 41 6z
m-4766 -32 c2 -19 1 -35 -3 -35 -4 0 -9 16 -11 35 -2 19 -1 35 3 35 4 0 9 -16
11 -35z m5026 -12 c-1 -44 -2 -45 -5 -10 -2 20 -9 37 -14 37 -6 0 -7 5 -4 10
14 23 25 7 23 -37z m-2118 17 c0 -11 -4 -20 -10 -20 -5 0 -10 9 -10 20 0 11 5
20 10 20 6 0 10 -9 10 -20z m65 0 c0 -7 -6 -15 -12 -17 -8 -3 -13 4 -13 17 0
13 5 20 13 18 6 -3 12 -11 12 -18z m125 -1 c0 -24 -23 -21 -28 4 -2 10 3 17
12 17 10 0 16 -9 16 -21z m60 -5 c0 -22 -16 -17 -17 6 -1 11 2 18 8 15 5 -4 9
-13 9 -21z m68 -5 c-3 -8 -7 -3 -11 10 -4 17 -3 21 5 13 5 -5 8 -16 6 -23z
m68 7 c2 -13 1 -13 -3 -1 -2 8 -9 13 -14 10 -5 -4 -9 -1 -9 5 0 18 25 5 26
-14z m-1679 -2 c7 -18 -14 -35 -34 -27 -7 3 -13 14 -13 24 0 24 38 26 47 3z
m-370 -16 c-3 -8 -6 -5 -6 6 -1 11 2 17 5 13 3 -3 4 -12 1 -19z m2480 -15 c-3
-10 -5 -4 -5 12 0 17 2 24 5 18 2 -7 2 -21 0 -30z m30 0 c-3 -10 -5 -4 -5 12
0 17 2 24 5 18 2 -7 2 -21 0 -30z m748 8 c-3 -6 -11 -11 -17 -11 -6 0 -6 6 2
15 14 17 26 13 15 -4z m-1595 -26 c0 -14 -4 -25 -10 -25 -11 0 -14 33 -3 43
11 11 13 8 13 -18z m60 0 c0 -14 -4 -25 -10 -25 -5 0 -10 11 -10 25 0 14 5 25
10 25 6 0 10 -11 10 -25z m-2070 -33 c0 -28 -3 -33 -10 -22 -13 20 -13 73 0
65 6 -3 10 -23 10 -43z m2200 28 c0 -11 -7 -20 -15 -20 -8 0 -15 9 -15 20 0
11 7 20 15 20 8 0 15 -9 15 -20z m130 10 c0 -5 -2 -10 -4 -10 -3 0 -8 5 -11
10 -3 6 -1 10 4 10 6 0 11 -4 11 -10z m-2290 -47 c0 -13 -4 -23 -10 -23 -5 0
-10 17 -10 38 0 27 3 33 10 22 5 -8 10 -25 10 -37z m990 28 c0 -11 3 -26 6
-35 4 -10 1 -16 -7 -16 -9 0 -14 13 -15 35 0 19 3 35 8 35 4 0 8 -9 8 -19z
m1367 -26 l-27 -21 41 -49 c84 -101 121 -157 111 -167 -6 -6 -32 20 -75 74
-35 46 -76 94 -91 107 -14 14 -26 30 -26 37 0 17 84 65 89 51 2 -6 -8 -20 -22
-32z m1150 28 c-9 -9 -20 -13 -24 -9 -4 4 -1 11 7 16 25 16 35 11 17 -7z m955
-23 c4 -49 -8 -54 -14 -5 -3 31 -1 45 8 45 1 0 4 -18 6 -40z m225 -52 c-2 -18
-4 -4 -4 32 0 36 2 50 4 33 2 -18 2 -48 0 -65z m-743 37 c137 -82 326 -254
423 -385 52 -71 76 -92 109 -96 35 -3 41 -11 26 -35 -10 -16 -9 -25 3 -49 34
-65 13 -61 -58 12 -134 138 -241 168 -425 119 -45 -13 -62 -9 -62 14 0 31 113
60 223 56 l79 -2 -27 35 c-15 20 -32 33 -38 29 -5 -3 -7 -1 -4 4 4 6 -3 19
-15 29 -12 11 -18 13 -13 5 5 -9 3 -12 -6 -9 -8 3 -14 12 -14 21 0 9 -6 22
-13 29 -9 9 -12 8 -12 -6 0 -10 -5 -14 -11 -10 -6 3 -9 14 -6 24 3 12 -7 28
-31 47 -20 15 -63 50 -95 77 -47 39 -58 44 -52 26 5 -15 4 -20 -4 -16 -6 4
-11 14 -11 23 0 18 -28 53 -41 53 -5 0 -6 -8 -3 -17 4 -10 -4 -3 -15 15 -14
21 -27 32 -36 28 -8 -3 -17 -1 -20 4 -4 6 14 10 42 10 38 0 62 -8 107 -35z
m-4888 -12 c-5 -17 -3 -29 6 -34 10 -7 9 -9 -4 -9 -14 0 -18 8 -18 35 0 19 5
35 11 35 7 0 9 -10 5 -27z m3104 1 c0 -8 -7 -14 -15 -14 -15 0 -21 21 -9 33
10 9 24 -2 24 -19z m1285 7 c-3 -6 -11 -11 -17 -11 -6 0 -6 6 2 15 14 17 26
13 15 -4z m-4583 -16 c-2 -14 2 -33 9 -43 13 -15 12 -16 -3 -3 -18 13 -24 51
-11 64 10 11 11 9 5 -18z m38 -10 c0 -19 -2 -35 -4 -35 -2 0 -6 16 -8 35 -2
19 0 35 4 35 4 0 8 -16 8 -35z m1418 1 c-7 -8 -15 -12 -17 -11 -5 6 10 25 20
25 5 0 4 -6 -3 -14z m1902 4 c0 -5 -5 -10 -11 -10 -5 0 -7 5 -4 10 3 6 8 10
11 10 2 0 4 -4 4 -10z m-2723 -32 c-3 -7 -5 -2 -5 12 0 14 2 19 5 13 2 -7 2
-19 0 -25z m40 0 c-3 -7 -5 -2 -5 12 0 14 2 19 5 13 2 -7 2 -19 0 -25z m443
-25 c0 -13 -4 -23 -9 -23 -10 0 -21 57 -12 65 8 8 21 -18 21 -42z m35 16 c6
-28 1 -48 -10 -37 -3 2 -8 19 -11 36 -8 42 12 43 21 1z m2137 -3 c2 -19 1 -33
-3 -30 -4 2 -10 -2 -13 -8 -4 -7 -4 -2 -1 12 2 14 5 33 5 43 0 29 8 19 12 -17z
m1230 12 c-6 -6 -15 -8 -19 -4 -4 4 -1 11 7 16 19 12 27 3 12 -12z m215 -15
c-3 -10 -5 -4 -5 12 0 17 2 24 5 18 2 -7 2 -21 0 -30z m43 12 c0 -14 -2 -25
-4 -25 -2 0 -6 11 -8 25 -3 14 -1 25 3 25 5 0 9 -11 9 -25z m-3313 -7 c-3 -8
-6 -5 -6 6 -1 11 2 17 5 13 3 -3 4 -12 1 -19z m2778 -4 c0 -11 -8 -19 -18 -20
-12 -1 -13 -1 -2 3 8 2 15 11 15 19 0 17 -12 18 -30 2 -12 -11 -12 -10 -1 5
17 22 36 17 36 -9z m605 16 c0 -5 -9 -10 -20 -10 -11 0 -20 5 -20 10 0 6 9 10
20 10 11 0 20 -4 20 -10z m57 -6 c2 -6 -3 -11 -12 -11 -8 0 -15 7 -15 15 0 15
22 12 27 -4z m-2774 -37 c4 -26 2 -37 -5 -35 -10 4 -14 40 -9 75 2 14 8 -4 14
-40z m2835 25 c3 -9 -2 -13 -14 -10 -9 1 -19 9 -22 16 -3 9 2 13 14 10 9 -1
19 -9 22 -16z m-282 -4 c4 -7 3 -8 -4 -4 -7 4 -12 3 -12 -3 0 -5 6 -12 13 -14
7 -3 5 -6 -5 -6 -18 -1 -24 19 -11 32 9 9 11 9 19 -5z m332 -16 c2 -7 -2 -10
-12 -6 -9 3 -16 11 -16 16 0 13 23 5 28 -10z m-3712 -27 c-3 -8 -11 -15 -18
-14 -10 0 -10 2 0 6 6 2 12 14 13 26 0 12 3 16 6 9 3 -7 2 -19 -1 -27z m2650
-1 c1 -29 1 -29 -3 -1 -6 38 -23 34 -24 -5 -1 -25 -3 -27 -6 -10 -3 13 -2 30
1 39 10 24 31 9 32 -23z m514 21 c0 -8 -4 -15 -9 -15 -13 0 -22 16 -14 24 11
11 23 6 23 -9z m-4626 -296 c20 -2 20 -2 -2 -6 l-23 -4 4 -417 c3 -229 5 -574
5 -767 2 -564 18 -683 121 -900 135 -283 352 -499 638 -636 218 -105 371 -129
808 -129 227 0 304 3 314 13 11 10 14 10 18 0 4 -10 60 -13 231 -15 173 -1
207 -3 142 -8 -136 -12 -1086 -11 -1180 0 -245 30 -458 122 -659 285 -171 138
-316 356 -390 586 -58 182 -60 208 -65 1304 -3 744 -2 961 6 848 10 -146 11
-153 32 -154z m372 258 c2 -20 -1 -37 -5 -37 -5 0 -7 16 -5 35 2 37 -4 43 -24
23 -7 -7 -12 -8 -12 -2 0 16 12 25 29 22 10 -2 16 -17 17 -41z m831 11 c-3 -7
-5 -2 -5 12 0 14 2 19 5 13 2 -7 2 -19 0 -25z m4028 21 c4 -6 5 -12 2 -15 -7
-7 -37 7 -37 17 0 13 27 11 35 -2z m-835 -13 c-7 -7 -13 -7 -20 0 -6 6 -3 10
10 10 13 0 16 -4 10 -10z m390 -6 c0 -5 -5 -10 -11 -10 -5 0 -7 5 -4 10 3 6 8
10 11 10 2 0 4 -4 4 -10z m-3453 -71 c4 -38 2 -51 -5 -44 -6 6 -14 35 -18 65
-5 41 -4 52 5 44 6 -6 14 -35 18 -65z m3371 43 c3 -16 -2 -22 -15 -21 -10 0
-13 3 -5 6 6 2 12 12 12 20 0 10 -6 13 -16 9 -9 -3 -12 -2 -9 5 10 16 30 5 33
-19z m580 10 c2 -7 -2 -10 -12 -6 -9 3 -16 11 -16 16 0 13 23 5 28 -10z
m-3994 -23 c3 -17 6 -43 5 -58 l-1 -26 -7 25 c-15 49 -20 90 -12 90 5 0 11
-14 15 -31z m3279 10 c-4 -13 -9 -17 -15 -11 -11 11 -3 32 12 32 4 0 6 -9 3
-21z m1189 -14 c2 -19 0 -35 -4 -35 -4 0 -8 16 -8 35 0 19 2 35 4 35 2 0 6
-16 8 -35z m-4136 -21 c-3 -8 -11 -14 -18 -13 -10 0 -10 2 0 6 6 2 13 17 13
31 1 18 3 21 6 9 3 -10 2 -25 -1 -33z m3708 30 c9 -24 7 -28 -9 -14 -17 14
-20 30 -6 30 5 0 12 -7 15 -16z m-3037 -49 c-1 -19 -6 -35 -11 -35 -6 0 -10
17 -9 37 2 47 1 45 12 39 5 -3 9 -22 8 -41z m1937 29 c3 -8 2 -12 -4 -9 -6 3
-10 10 -10 16 0 14 7 11 14 -7z m-940 -3 c3 -5 -50 -44 -119 -86 -69 -42 -125
-79 -125 -81 0 -3 53 -62 118 -132 171 -186 312 -362 312 -390 0 -35 -113
-458 -126 -471 -17 -18 -8 33 41 210 80 295 83 255 -24 384 -51 61 -157 176
-237 257 l-146 146 23 16 c23 14 272 156 276 156 1 0 4 -4 7 -9z m1336 -11 c0
-11 -4 -20 -9 -20 -5 0 -7 9 -4 20 3 11 7 20 9 20 2 0 4 -9 4 -20z m-110 -9
c0 -23 -16 -36 -25 -21 -9 14 1 40 15 40 5 0 10 -9 10 -19z m864 -2 c-6 -11
-24 -2 -24 11 0 5 7 7 15 4 8 -4 12 -10 9 -15z m-5019 -59 c0 -52 -12 -52 -17
0 -2 24 1 40 7 40 6 0 11 -18 10 -40z m4455 30 c0 -5 -2 -10 -4 -10 -3 0 -8 5
-11 10 -3 6 -1 10 4 10 6 0 11 -4 11 -10z m-557 -6 c8 -8 -3 -34 -15 -34 -6 0
-4 8 3 17 13 15 12 16 -9 11 -12 -4 -20 -2 -16 3 6 10 28 12 37 3z m304 -16
c-3 -8 -6 -5 -6 6 -1 11 2 17 5 13 3 -3 4 -12 1 -19z m-107 -2 c0 -18 -17 -29
-30 -21 -8 5 -7 11 1 21 15 18 29 18 29 0z m1302 -21 c5 -43 -8 -47 -14 -5 -4
26 -1 40 8 40 1 0 4 -16 6 -35z m-4516 -80 c-3 -5 -5 0 -5 12 -1 12 -5 23 -10
25 -5 2 -7 17 -3 33 6 29 6 28 14 -15 4 -25 6 -49 4 -55z m72 57 c2 -18 -1
-32 -7 -32 -6 0 -11 9 -11 19 0 11 -3 27 -7 37 -4 12 -2 15 8 12 8 -2 15 -19
17 -36z m36 22 c9 -23 7 -54 -3 -54 -9 0 -21 33 -21 58 0 17 17 15 24 -4z
m3903 -14 c4 -12 3 -13 -5 -1 -5 7 -15 10 -21 7 -6 -4 -11 -2 -11 4 0 17 33 8
37 -10z m-2957 -36 c0 -19 -4 -34 -9 -34 -9 0 -20 67 -13 75 11 11 22 -9 22
-41z m2100 13 c0 -8 -3 -17 -7 -20 -9 -9 -34 13 -27 24 8 14 34 11 34 -4z
m-3553 -67 c12 0 14 8 11 35 -2 20 0 31 5 26 5 -5 7 -21 5 -37 -2 -21 -8 -29
-23 -29 -16 0 -20 7 -21 35 -1 35 -1 35 3 3 3 -21 10 -33 20 -33z m890 3 c-3
-10 -5 -2 -5 17 0 19 2 27 5 18 2 -10 2 -26 0 -35z m-402 -4 c4 -17 4 -33 1
-36 -9 -9 -12 -2 -19 35 -8 41 9 42 18 1z m40 0 c6 -27 1 -49 -9 -38 -10 11
-17 69 -8 69 6 0 13 -14 17 -31z m2742 -1 c-3 -7 -5 -2 -5 12 0 14 2 19 5 13
2 -7 2 -19 0 -25z m1878 2 c-5 -8 -11 -8 -17 -2 -6 6 -7 16 -3 22 5 8 11 8 17
2 6 -6 7 -16 3 -22z m-1665 4 c0 -8 -5 -12 -10 -9 -6 4 -8 11 -5 16 9 14 15
11 15 -7z m-3066 -39 c3 -22 1 -47 -4 -55 -8 -11 -9 -8 -4 13 4 17 2 27 -5 27
-6 0 -9 10 -7 23 3 12 5 26 5 31 2 20 10 -1 15 -39z m3980 -11 c8 -20 -1 -34
-20 -34 -8 0 -14 8 -14 18 0 33 23 44 34 16z m-964 -4 c0 -5 -2 -10 -4 -10 -3
0 -8 5 -11 10 -3 6 -1 10 4 10 6 0 11 -4 11 -10z m423 -51 c-5 -5 -7 7 -4 29
5 34 6 35 9 8 2 -16 0 -32 -5 -37z m-2966 -1 c-2 -13 -4 -5 -4 17 -1 22 1 32
4 23 2 -10 2 -28 0 -40z m3451 16 c-6 -32 -25 -26 -20 6 3 21 8 28 14 22 6 -6
8 -18 6 -28z m-3834 -16 c3 -15 2 -30 -4 -33 -5 -3 -10 -2 -10 3 0 5 -3 25 -6
43 -8 41 10 29 20 -13z m-691 12 c-3 -12 -8 -19 -11 -16 -5 6 5 36 12 36 2 0
2 -9 -1 -20z m30 -41 c-5 -5 -7 7 -4 29 5 34 6 35 9 8 2 -16 0 -32 -5 -37z
m699 31 c5 -32 -6 -41 -16 -14 -9 23 -7 44 3 44 5 0 11 -13 13 -30z m1175 -2
c-3 -7 -5 -2 -5 12 0 14 2 19 5 13 2 -7 2 -19 0 -25z m3010 -15 c-3 -10 -5 -2
-5 17 0 19 2 27 5 18 2 -10 2 -26 0 -35z m-4517 7 c0 -16 -2 -30 -4 -30 -2 0
-6 14 -8 30 -3 17 -1 30 4 30 4 0 8 -13 8 -30z m1487 8 c-3 -8 -6 -5 -6 6 -1
11 2 17 5 13 3 -3 4 -12 1 -19z m2579 -24 c-6 -17 -36 -19 -36 -2 0 6 8 20 18
31 15 17 17 17 20 3 2 -10 1 -24 -2 -32z m-4629 -6 c-3 -7 -5 -2 -5 12 0 14 2
19 5 13 2 -7 2 -19 0 -25z m780 0 c-3 -8 -6 -5 -6 6 -1 11 2 17 5 13 3 -3 4
-12 1 -19z m-1217 -3 c-7 -8 -10 -26 -8 -40 3 -13 1 -22 -3 -19 -14 8 -11 62
4 67 20 8 20 8 7 -8z m23 -56 c-5 -5 -7 7 -4 29 5 34 6 35 9 8 2 -16 0 -32 -5
-37z m4973 12 c-9 -12 -12 -11 -14 3 -2 9 -1 25 3 34 6 15 8 15 15 -3 4 -12 3
-26 -4 -34z m-3758 -46 c0 -16 -2 -15 -8 5 -4 14 -8 36 -8 50 0 22 1 22 8 -5
4 -16 8 -39 8 -50z m112 27 c0 -40 -17 -34 -20 8 -3 36 -1 42 10 35 6 -3 10
-23 10 -43z m327 -4 c-2 -13 -4 -5 -4 17 -1 22 1 32 4 23 2 -10 2 -28 0 -40z
m-367 1 c0 -18 -4 -28 -10 -24 -5 3 -10 20 -10 36 0 18 4 28 10 24 6 -3 10
-20 10 -36z m227 9 c-3 -8 -6 -5 -6 6 -1 11 2 17 5 13 3 -3 4 -12 1 -19z
m3980 -25 c-3 -10 -5 -2 -5 17 0 19 2 27 5 18 2 -10 2 -26 0 -35z m143 18 c0
-16 6 -32 13 -34 6 -3 3 -6 -8 -6 -16 -1 -20 5 -20 34 0 19 3 35 8 35 4 0 7
-13 7 -29z m-720 -6 c0 -14 -4 -25 -9 -25 -6 0 -8 36 -2 48 5 10 11 -2 11 -23z
m-4328 -15 c-3 -23 -1 -30 13 -30 14 0 16 7 13 30 -3 19 -1 27 5 21 16 -16 4
-56 -18 -56 -20 0 -31 25 -21 51 9 23 13 16 8 -16z m171 23 c-15 -6 -17 -59
-3 -66 6 -3 5 -4 -2 -3 -26 5 -22 77 4 75 10 0 10 -2 1 -6z m3287 -13 c0 -11
-2 -20 -4 -20 -2 0 -6 9 -9 20 -3 11 -1 20 4 20 5 0 9 -9 9 -20z m-3793 -42
c-3 -7 -5 -2 -5 12 0 14 2 19 5 13 2 -7 2 -19 0 -25z m40 -5 c-3 -10 -5 -4 -5
12 0 17 2 24 5 18 2 -7 2 -21 0 -30z m3627 -5 c-3 -4 5 -12 16 -18 11 -6 20
-16 20 -23 0 -7 -4 -6 -10 3 -9 13 -10 13 -10 0 -1 -17 -24 22 -35 60 -7 24
-7 24 8 5 8 -11 13 -23 11 -27z m893 -15 c-3 -10 -5 -4 -5 12 0 17 2 24 5 18
2 -7 2 -21 0 -30z m41 6 c-3 -8 -7 -3 -11 10 -4 17 -3 21 5 13 5 -5 8 -16 6
-23z m228 -10 c2 -31 1 -31 -3 -4 -3 16 -10 34 -16 38 -8 6 -7 7 3 4 9 -2 16
-17 16 -38z m-3782 15 c9 -24 7 -54 -4 -54 -5 0 -10 9 -10 19 0 11 -3 26 -6
35 -3 9 -2 16 4 16 5 0 13 -7 16 -16z m40 0 c9 -24 7 -54 -4 -54 -5 0 -10 6
-10 13 0 6 -3 22 -6 35 -7 25 11 31 20 6z m2656 12 c0 -3 -4 -8 -10 -11 -5 -3
-10 -1 -10 4 0 6 5 11 10 11 6 0 10 -2 10 -4z m-2343 -53 c-3 -10 -5 -2 -5 17
0 19 2 27 5 18 2 -10 2 -26 0 -35z m3390 15 c-3 -7 -5 -2 -5 12 0 14 2 19 5
13 2 -7 2 -19 0 -25z m-1838 -1 c-2 -2 -42 -29 -89 -61 -138 -92 -130 -76 -74
-143 27 -32 63 -74 81 -93 53 -59 75 -90 71 -101 -3 -9 -123 115 -231 238
l-20 22 124 80 c78 50 127 77 133 71 5 -5 8 -11 5 -13z m1418 -34 c-3 -10 -5
-2 -5 17 0 19 2 27 5 18 2 -10 2 -26 0 -35z m870 0 c-3 -10 -5 -2 -5 17 0 19
2 27 5 18 2 -10 2 -26 0 -35z m163 17 c0 -16 -4 -30 -9 -30 -12 0 -24 37 -16
50 12 20 25 10 25 -20z m-4426 4 c9 -24 7 -46 -4 -39 -5 3 -6 13 -3 22 4 10 2
14 -4 10 -5 -3 -10 0 -10 8 0 20 13 19 21 -1z m-834 -9 c0 -8 -2 -15 -4 -15
-2 0 -6 7 -10 15 -3 8 -1 15 4 15 6 0 10 -7 10 -15z m3530 -14 c0 -5 -9 -11
-21 -14 -13 -4 -18 -10 -13 -18 4 -7 3 -10 -3 -6 -10 7 -55 -38 -47 -46 3 -3
-3 -4 -13 -3 -12 0 -19 -7 -21 -22 -3 -19 -6 -21 -18 -11 -11 9 -14 8 -14 -4
0 -9 -9 -21 -20 -27 -12 -6 -20 -21 -20 -36 0 -16 -4 -23 -11 -18 -8 5 -9 -6
-4 -35 4 -27 3 -41 -4 -41 -6 0 -11 -9 -11 -20 0 -30 -21 -122 -27 -116 -5 4
18 178 33 253 2 13 28 39 62 62 31 21 75 55 97 75 41 36 55 43 55 27z m-2568
-41 c2 -14 -1 -27 -7 -30 -6 -3 -11 13 -13 35 -4 44 14 39 20 -5z m-43 -7 c0
-31 -2 -34 -9 -18 -12 28 -12 55 0 55 6 0 10 -17 9 -37z m2636 27 c3 -5 1 -10
-4 -10 -6 0 -11 5 -11 10 0 6 2 10 4 10 3 0 8 -4 11 -10z m472 -22 c-3 -8 -6
-5 -6 6 -1 11 2 17 5 13 3 -3 4 -12 1 -19z m1260 -8 c6 -16 8 -30 3 -30 -4 0
-13 14 -19 30 -5 17 -7 30 -3 30 4 0 13 -13 19 -30z m-4030 -27 c-3 -10 -5 -2
-5 17 0 19 2 27 5 18 2 -10 2 -26 0 -35z m-409 20 c-1 -10 0 -22 4 -28 3 -5 9
-30 13 -54 7 -42 6 -44 -9 -28 -11 11 -15 24 -11 37 4 12 2 27 -4 34 -5 6 -8
22 -4 34 6 26 16 30 11 5z m4412 7 c0 -5 -8 -10 -17 -10 -15 0 -16 2 -3 10 19
12 20 12 20 0z m-2043 -22 c-3 -8 -6 -5 -6 6 -1 11 2 17 5 13 3 -3 4 -12 1
-19z m1883 -13 c0 -19 -2 -35 -4 -35 -2 0 -6 16 -8 35 -2 19 0 35 4 35 4 0 8
-16 8 -35z m-5093 -32 c-3 -10 -5 -2 -5 17 0 19 2 27 5 18 2 -10 2 -26 0 -35z
m3561 11 c-3 -14 -5 -12 -10 9 -3 19 -2 25 4 19 6 -6 8 -18 6 -28z m-3591 -11
c-3 -10 -5 -4 -5 12 0 17 2 24 5 18 2 -7 2 -21 0 -30z m3550 5 c-3 -8 -6 -5
-6 6 -1 11 2 17 5 13 3 -3 4 -12 1 -19z m1773 2 c0 -11 -7 -20 -15 -20 -18 0
-19 12 -3 28 16 16 18 15 18 -8z m-4360 -38 c0 -13 -4 -20 -10 -17 -5 3 -10
21 -10 38 0 24 3 28 10 17 5 -8 10 -25 10 -38z m40 11 c0 -41 -13 -35 -24 10
-5 20 -3 27 9 27 11 0 15 -11 15 -37z m1410 17 c0 -5 -7 -10 -15 -10 -8 0 -15
5 -15 10 0 6 7 10 15 10 8 0 15 -4 15 -10z m-1133 -47 c-3 -10 -5 -2 -5 17 0
19 2 27 5 18 2 -10 2 -26 0 -35z m2300 31 c-3 -3 -12 -4 -19 -1 -8 3 -5 6 6 6
11 1 17 -2 13 -5z m-2925 -54 c4 -49 -8 -54 -14 -5 -3 31 -1 45 8 45 1 0 4
-18 6 -40z m4038 30 c0 -5 -5 -10 -11 -10 -5 0 -7 5 -4 10 3 6 8 10 11 10 2 0
4 -4 4 -10z m643 -17 c-4 -22 -2 -25 6 -13 9 13 11 13 11 -2 0 -10 -7 -18 -15
-18 -10 0 -15 10 -15 30 0 17 4 30 9 30 4 0 6 -12 4 -27z m-5092 -46 c-8 -8
-15 -7 -23 2 -11 10 -10 11 5 6 14 -6 17 -1 18 26 2 32 2 33 6 5 3 -16 0 -33
-6 -39z m143 54 c4 -5 -3 -7 -14 -4 -23 6 -26 13 -6 13 8 0 17 -4 20 -9z
m4893 -38 c-3 -10 -5 -2 -5 17 0 19 2 27 5 18 2 -10 2 -26 0 -35z m-285 7 c3
-17 0 -30 -6 -30 -6 0 -11 14 -11 30 0 17 3 30 6 30 4 0 9 -13 11 -30z m-4976
-15 c0 -20 -4 -35 -11 -35 -7 0 -11 15 -11 35 1 19 6 35 11 35 6 0 10 -16 11
-35z m1004 -17 c0 -16 -4 -28 -9 -28 -11 0 -23 59 -15 72 9 15 24 -12 24 -44z
m1954 40 c-29 -48 -109 -160 -129 -182 -13 -14 -26 -33 -30 -43 -8 -25 -44
-67 -51 -60 -3 3 9 27 28 52 18 26 44 64 58 84 49 74 156 201 124 149z m1241
-22 c0 -19 -3 -32 -7 -29 -14 8 -8 63 6 63 1 0 1 -15 1 -34z m28 -27 c-5 -5
-7 7 -4 29 5 34 6 35 9 8 2 -16 0 -32 -5 -37z m-3269 35 c9 -24 7 -54 -4 -54
-5 0 -10 9 -10 19 0 11 -3 26 -6 35 -3 9 -2 16 4 16 5 0 13 -7 16 -16z m3719
-4 c3 -11 1 -20 -4 -20 -5 0 -9 9 -9 20 0 11 2 20 4 20 2 0 6 -9 9 -20z m847
-16 c0 -13 -4 -24 -9 -24 -13 0 -24 37 -16 50 10 16 25 1 25 -26z m-419 16 c9
13 10 13 6 0 -2 -8 -10 -15 -17 -15 -7 0 -15 7 -17 15 -4 13 -3 13 6 0 10 -13
12 -13 22 0z m-4224 -22 c-3 -8 -6 -5 -6 6 -1 11 2 17 5 13 3 -3 4 -12 1 -19z
m380 -25 c-3 -10 -5 -2 -5 17 0 19 2 27 5 18 2 -10 2 -26 0 -35z m810 15 c-3
-7 -5 -2 -5 12 0 14 2 19 5 13 2 -7 2 -19 0 -25z m20 0 c-3 -7 -5 -2 -5 12 0
14 2 19 5 13 2 -7 2 -19 0 -25z m-640 -20 c-3 -8 -6 -5 -6 6 -1 11 2 17 5 13
3 -3 4 -12 1 -19z m3905 -2 c5 -23 -17 -45 -30 -31 -3 3 0 5 6 5 7 0 12 10 12
23 0 18 -2 19 -10 7 -8 -13 -10 -12 -10 3 0 26 27 20 32 -7z m-5292 -2 c0 -4
-31 -59 -68 -123 -38 -64 -82 -140 -98 -168 -27 -49 -54 -69 -54 -42 0 29 189
339 206 339 8 0 14 -3 14 -6z m4625 -44 c0 -28 -4 -35 -20 -35 -13 0 -21 8
-23 23 -5 34 5 54 25 50 13 -2 18 -13 18 -38z m303 9 c-3 -8 -7 -3 -11 10 -4
17 -3 21 5 13 5 -5 8 -16 6 -23z m253 -1 c-3 -21 -6 -26 -9 -15 -3 17 3 47 11
47 2 0 1 -15 -2 -32z m37 -4 c-3 -14 -5 -12 -10 9 -3 19 -2 25 4 19 6 -6 8
-18 6 -28z m-4630 -11 c-4 -46 -34 -59 -44 -19 -8 35 1 56 26 56 18 0 21 -5
18 -37z m325 5 c4 -31 2 -46 -7 -37 -10 11 -17 69 -8 69 5 0 12 -15 15 -32z
m42 1 c8 -34 -1 -51 -15 -29 -12 19 -13 60 -1 60 5 0 12 -14 16 -31z m3832
-10 c-4 -22 -4 -21 -6 4 -1 19 -5 26 -13 21 -7 -5 -8 -3 -3 5 11 19 27 -3 22
-30z m100 4 c-3 -10 -5 -4 -5 12 0 17 2 24 5 18 2 -7 2 -21 0 -30z m130 0 c-3
-10 -5 -4 -5 12 0 17 2 24 5 18 2 -7 2 -21 0 -30z m-1204 7 c-3 -12 -8 -19
-11 -16 -5 6 5 36 12 36 2 0 2 -9 -1 -20z m24 -27 c-3 -10 -5 -2 -5 17 0 19 2
27 5 18 2 -10 2 -26 0 -35z m-2640 0 c-3 -10 -5 -4 -5 12 0 17 2 24 5 18 2 -7
2 -21 0 -30z m824 -3 l8 25 -2 -25 c-2 -31 -22 -29 -23 2 -1 20 0 20 4 -2 l5
-25 8 25z m-1573 -14 c2 -16 0 -32 -5 -37 -5 -5 -7 7 -5 28 4 31 2 35 -12 30
-11 -4 -15 -3 -11 4 12 18 30 4 33 -25z m4862 4 c0 -20 -5 -30 -15 -30 -10 0
-15 10 -15 30 0 20 5 30 15 30 10 0 15 -10 15 -30z m-5002 -21 c-3 -20 -5 -19
-9 9 -3 20 -2 29 4 23 5 -5 7 -19 5 -32z m1079 -6 c-3 -10 -5 -2 -5 17 0 19 2
27 5 18 2 -10 2 -26 0 -35z m3343 20 c-1 -24 -2 -26 -11 -10 -5 9 -7 22 -4 27
10 17 15 11 15 -17z m-4458 -12 c2 -17 1 -28 -4 -25 -8 5 -12 54 -4 54 2 0 6
-13 8 -29z m2428 2 c0 -5 -31 -23 -68 -40 -68 -33 -115 -42 -127 -23 -4 6 8
10 29 10 22 0 53 11 83 30 44 28 83 39 83 23z m2747 -45 c-2 -13 -4 -5 -4 17
-1 22 1 32 4 23 2 -10 2 -28 0 -40z m-3663 11 c55 -17 115 -37 131 -44 17 -8
65 -23 108 -34 43 -11 87 -27 98 -37 26 -23 9 -40 -22 -23 -13 7 -51 15 -84
18 -44 4 -60 10 -60 21 0 9 -11 16 -25 18 -24 3 -25 2 -5 -13 17 -14 18 -17 5
-25 -8 -5 -36 -8 -61 -6 -36 3 -70 -4 -149 -34 -106 -39 -128 -58 -113 -97 5
-13 2 -15 -11 -10 -14 5 -22 -5 -42 -48 -14 -30 -32 -55 -40 -55 -14 0 -16
-11 -18 -85 -1 -29 -6 -40 -18 -43 -37 -7 -8 96 66 242 l41 79 90 34 c49 19
91 36 93 38 8 8 -9 75 -18 75 -5 0 -12 -11 -16 -25 -8 -31 -18 -24 -19 13 0
43 -43 52 -97 22 -24 -14 -60 -33 -81 -43 -57 -29 -143 -131 -173 -207 -14
-36 -31 -71 -36 -78 -6 -7 -10 -39 -9 -72 1 -46 -2 -60 -13 -60 -23 0 -25 10
-15 75 14 90 59 199 106 257 23 29 40 54 38 56 -18 19 -134 -115 -161 -185 -9
-24 -23 -43 -30 -43 -18 0 -44 -52 -44 -88 0 -29 -21 -58 -33 -45 -14 14 -5
47 34 126 40 81 139 223 169 242 8 5 44 19 80 31 36 11 92 35 125 52 33 17 71
31 84 32 13 0 69 -14 125 -31z m3476 -9 c0 -16 -3 -31 -7 -33 -5 -3 -8 12 -8
33 0 21 3 36 8 33 4 -2 7 -17 7 -33z m-4283 -20 c6 -28 6 -53 2 -56 -11 -6
-15 6 -23 64 -9 59 9 53 21 -8z m220 3 c-3 -10 -5 -2 -5 17 0 19 2 27 5 18 2
-10 2 -26 0 -35z m3189 21 c-4 -9 -9 -15 -11 -12 -3 3 -3 13 1 22 4 9 9 15 11
12 3 -3 3 -13 -1 -22z m660 -10 c1 -29 1 -29 -3 -1 -4 26 -23 39 -23 15 0 -6
-3 -9 -6 -5 -9 9 6 29 19 24 7 -2 12 -17 13 -33z m141 -16 c-2 -13 -4 -5 -4
17 -1 22 1 32 4 23 2 -10 2 -28 0 -40z m35 25 c-3 -16 -7 -22 -10 -15 -4 13 4
42 11 42 2 0 2 -12 -1 -27z m-4292 7 c0 -5 -4 -10 -10 -10 -5 0 -10 5 -10 10
0 6 5 10 10 10 6 0 10 -4 10 -10z m2895 -31 c0 -24 -5 -35 -17 -37 -10 -2 -18
1 -18 7 0 6 7 8 15 5 11 -5 15 1 15 25 0 17 -4 31 -10 31 -5 0 -10 -5 -10 -12
0 -6 -3 -9 -6 -5 -9 9 6 29 19 24 7 -2 12 -19 12 -38z m848 27 c6 -16 -2 -28
-14 -20 -12 7 -11 34 0 34 5 0 11 -6 14 -14z m234 -33 c-3 -10 -5 -2 -5 17 0
19 2 27 5 18 2 -10 2 -26 0 -35z m423 -3 c0 -16 -4 -30 -10 -30 -5 0 -10 3
-10 8 0 4 -3 17 -6 30 -5 16 -2 22 10 22 11 0 16 -9 16 -30z m-4447 -143 c4
-27 3 -37 -6 -34 -13 4 -18 35 -18 107 0 34 -2 40 -9 25 -11 -25 -12 -8 -3 36
7 32 8 30 19 -31 6 -36 14 -82 17 -103z m57 122 c0 -16 -4 -29 -10 -29 -5 0
-10 16 -10 36 0 21 4 33 10 29 6 -3 10 -19 10 -36z m-352 -15 c-3 -29 -29 -41
-34 -16 -1 7 0 8 3 2 10 -21 23 -9 23 23 -1 30 -1 31 -15 13 -8 -11 -15 -15
-15 -10 0 17 23 35 33 25 5 -5 7 -21 5 -37z m4024 9 c-5 -27 -5 -27 -14 -4 -8
24 -2 45 11 36 5 -2 6 -17 3 -32z m-4832 17 c-30 -5 -71 -8 -90 -8 l-35 1 40
7 c22 4 63 7 90 7 l50 0 -55 -7z m3437 -27 c-3 -10 -5 -4 -5 12 0 17 2 24 5
18 2 -7 2 -21 0 -30z m-777 23 c0 -2 -9 -6 -20 -9 -11 -3 -20 -1 -20 4 0 5 9
9 20 9 11 0 20 -2 20 -4z m-1992 -52 c-3 -27 -4 -26 -9 8 -3 22 -1 34 4 29 5
-5 7 -21 5 -37z m749 -11 c-3 -10 -5 -2 -5 17 0 19 2 27 5 18 2 -10 2 -26 0
-35z m1198 16 c19 -17 32 -35 29 -40 -8 -14 -40 -11 -54 6 -7 8 -29 15 -50 15
-46 0 -55 8 -33 32 25 27 67 22 108 -13z m-1978 -1 c-3 -8 -6 -5 -6 6 -1 11 2
17 5 13 3 -3 4 -12 1 -19z m1130 -30 c-2 -13 -4 -5 -4 17 -1 22 1 32 4 23 2
-10 2 -28 0 -40z m3793 27 c0 -14 -4 -25 -10 -25 -5 0 -10 11 -10 25 0 14 5
25 10 25 6 0 10 -11 10 -25z m-5040 11 c0 -2 -8 -10 -17 -17 -16 -13 -17 -12
-4 4 13 16 21 21 21 13z m4258 -18 c-2 -13 -11 -24 -20 -26 -21 -4 -24 18 -6
36 19 19 30 14 26 -10z m492 -3 c0 -8 -3 -16 -7 -18 -5 -3 -8 5 -8 18 0 13 3
21 8 18 4 -2 7 -10 7 -18z m-140 -15 c0 -16 -2 -30 -4 -30 -2 0 -6 14 -8 30
-3 17 -1 30 4 30 4 0 8 -13 8 -30z m-4603 -2 c-3 -8 -6 -5 -6 6 -1 11 2 17 5
13 3 -3 4 -12 1 -19z m691 -16 c2 -18 -1 -32 -6 -32 -12 0 -22 24 -22 52 0 32
25 15 28 -20z m2808 2 l1 -29 -4 28 c-3 20 -9 27 -19 23 -9 -3 -12 -2 -9 5 12
19 30 3 31 -27z m1461 -11 c-3 -10 -5 -2 -5 17 0 19 2 27 5 18 2 -10 2 -26 0
-35z m-4314 10 c5 -26 2 -42 -7 -32 -9 11 -15 59 -7 59 5 0 11 -12 14 -27z
m536 -10 l-1 -28 -8 25 -8 25 -2 -25 c-1 -14 -4 -19 -7 -12 -6 17 3 42 17 42
5 0 10 -12 9 -27z m521 12 c0 -8 -2 -15 -4 -15 -2 0 -6 7 -10 15 -3 8 -1 15 4
15 6 0 10 -7 10 -15z m60 -20 c0 -14 -4 -25 -10 -25 -5 0 -10 11 -10 25 0 14
5 25 10 25 6 0 10 -11 10 -25z m1697 3 c-3 -8 -6 -5 -6 6 -1 11 2 17 5 13 3
-3 4 -12 1 -19z m724 -14 c-7 -22 -10 -24 -11 -9 -2 17 -3 16 -10 -5 -6 -20
-8 -21 -9 -6 -1 18 28 61 35 53 2 -2 -1 -16 -5 -33z m-2632 -1 c0 -25 -1 -25
-8 -8 -5 11 -7 23 -4 28 8 14 13 7 12 -20z m-60 -20 c-1 -22 -2 -23 -6 -8 -3
11 -10 23 -17 27 -7 5 -5 8 7 8 12 0 17 -7 16 -27z m-69 -12 c0 -17 -3 -32 -7
-34 -5 -3 -8 10 -8 29 0 19 3 34 8 34 4 0 7 -13 7 -29z m-716 -3 c9 -36 7 -48
-9 -48 -10 0 -15 11 -15 35 0 39 14 47 24 13z m903 7 c0 -8 -4 -12 -9 -9 -5 3
-6 10 -3 15 9 13 12 11 12 -6z m3530 -227 c-1 -46 -3 -9 -3 82 0 91 2 128 3
83 2 -46 2 -120 0 -165z m-4017 200 c0 -36 -4 -35 -14 5 -4 16 -2 27 4 27 5 0
10 -14 10 -32z m639 0 c-1 -31 -1 -31 -8 -8 -5 14 -6 28 -4 33 9 15 13 6 12
-25z m718 -27 c166 -90 483 -301 476 -316 -7 -19 -23 -19 -50 0 -19 13 -21 13
-26 -6 -8 -29 -31 -18 -37 17 -6 31 -4 30 -112 36 -15 0 -25 5 -22 9 2 4 -9
18 -27 31 -17 13 -32 21 -33 18 -1 -3 -14 5 -30 18 -27 21 -30 21 -43 5 -13
-16 -14 -16 -9 -1 5 17 -9 34 -34 40 -8 2 -19 8 -23 13 -6 6 -10 6 -14 -2 -3
-10 -9 -9 -26 1 -12 8 -90 23 -172 35 l-150 22 -48 -20 c-25 -11 -65 -25 -88
-31 -57 -15 -86 -36 -93 -66 -4 -13 -13 -24 -20 -24 -15 0 -26 -30 -26 -72 0
-16 -5 -28 -10 -28 -6 0 -9 3 -9 8 1 4 1 14 0 22 -2 27 -41 -49 -42 -83 -1
-30 -1 -30 -8 -7 l-7 25 -17 -32 c-9 -17 -14 -38 -12 -46 3 -7 1 -24 -4 -38
-10 -24 -10 -24 -11 6 0 22 -3 26 -9 15 -6 -8 -7 -18 -4 -23 3 -4 2 -19 -1
-33 -7 -27 -46 -35 -46 -8 0 30 68 172 115 243 78 117 125 153 241 189 l101
32 134 -20 c74 -11 151 -20 172 -20 21 0 53 -6 72 -14 l33 -14 -10 29 c-6 17
-13 28 -16 24 -3 -3 -14 2 -24 12 -17 15 -18 15 -18 0 0 -10 -4 -17 -10 -17
-5 0 -10 8 -10 18 0 26 -27 47 -83 66 -43 14 -51 14 -86 0 -27 -11 -45 -13
-57 -6 -14 8 -7 13 37 31 30 11 65 19 79 17 14 -3 66 -27 117 -55z m1643 14
c-7 -8 -16 -15 -21 -15 -15 0 -10 22 9 43 15 17 17 17 20 3 2 -9 -2 -23 -8
-31z m616 9 c1 -29 1 -29 -3 -1 -6 38 -23 34 -24 -5 -1 -25 -3 -27 -6 -10 -3
13 -2 30 1 39 10 24 31 9 32 -23z m-4076 -4 c0 -16 -4 -30 -10 -30 -5 0 -10
14 -10 30 0 17 5 30 10 30 6 0 10 -13 10 -30z m698 -8 c3 -26 0 -32 -15 -31
-10 0 -13 3 -5 6 15 6 16 49 2 56 -6 3 -5 4 2 3 7 -1 14 -17 16 -34z m462 13
c0 -14 -3 -25 -7 -25 -5 0 -8 11 -8 25 0 14 3 25 8 25 4 0 7 -11 7 -25z m415
-27 c144 -47 141 -46 133 -53 -3 -4 -36 1 -74 10 -49 11 -69 12 -74 4 -5 -7
-13 -3 -24 12 -13 20 -16 21 -16 5 0 -11 -6 -16 -17 -14 -10 2 -17 11 -17 21
2 25 -21 21 -34 -5 -10 -23 -11 -23 -11 5 -1 15 -5 27 -9 27 -5 0 -13 -12 -20
-27 -8 -19 -10 -21 -6 -5 6 24 4 25 -20 16 -9 -3 -16 -18 -17 -33 l-1 -26 -8
25 -7 25 -11 -25 c-8 -18 -11 -20 -11 -7 -1 9 -6 17 -11 17 -12 0 -30 -41 -23
-52 2 -5 -1 -8 -6 -8 -6 0 -11 9 -11 21 0 14 -5 19 -17 17 -13 -2 -17 -12 -16
-32 l2 -28 -18 21 c-21 24 -33 27 -30 9 4 -30 -2 -58 -12 -58 -5 0 -9 8 -8 18
3 32 -1 41 -16 36 -10 -4 -15 -21 -16 -48 -1 -42 -3 -41 -13 7 -8 33 -19 35
-34 3 -8 -18 -8 -26 0 -28 7 -3 8 -9 3 -19 -5 -8 -8 -24 -6 -36 1 -13 -3 -23
-9 -23 -6 0 -10 8 -9 18 3 32 -1 52 -10 52 -15 0 -24 -40 -22 -92 1 -27 -4
-50 -11 -54 -8 -5 -9 -2 -5 9 3 10 2 17 -3 17 -5 0 -11 10 -13 23 l-4 22 -8
-22 c-4 -13 -11 -23 -16 -23 -5 0 -4 -9 3 -19 9 -15 9 -25 1 -43 l-12 -23 0
28 c-2 57 -41 10 -41 -49 0 -14 -4 -23 -10 -19 -5 3 -14 -13 -21 -35 -13 -41
-35 -53 -46 -23 -9 23 93 220 160 308 29 39 68 78 87 88 27 14 29 17 10 12
-14 -3 -56 -10 -93 -16 -41 -6 -76 -18 -87 -29 -18 -18 -36 -58 -32 -73 1 -5
-2 -6 -8 -2 -28 17 0 87 44 109 40 20 209 41 214 27 2 -7 12 -6 30 1 81 32
210 76 232 77 14 1 84 -18 155 -41z m-365 22 c0 -5 -5 -10 -11 -10 -5 0 -7 5
-4 10 3 6 8 10 11 10 2 0 4 -4 4 -10z m1606 -26 c1 -29 1 -29 -3 -1 -2 15 -9
27 -14 27 -17 0 -23 -32 -9 -54 12 -19 12 -20 -3 -7 -20 16 -22 42 -5 59 19
19 33 9 34 -24z m347 16 c-3 -12 -8 -19 -11 -16 -5 6 5 36 12 36 2 0 2 -9 -1
-20z m632 -14 c0 -19 -3 -32 -7 -29 -14 8 -8 63 6 63 1 0 1 -15 1 -34z m35 5
c0 -17 -3 -32 -7 -34 -5 -3 -8 10 -8 29 0 19 3 34 8 34 4 0 7 -13 7 -29z m107
7 c-3 -8 -6 -5 -6 6 -1 11 2 17 5 13 3 -3 4 -12 1 -19z m-4882 -37 c-7 -38
-165 -353 -175 -349 -7 2 -11 8 -11 13 0 24 176 374 182 363 4 -6 6 -18 4 -27z
m4365 10 c0 -24 -18 -37 -32 -23 -8 8 -7 16 2 27 17 21 30 19 30 -4z m-2780
-52 c0 -16 -4 -29 -8 -29 -5 0 -7 15 -5 33 3 24 2 29 -6 17 -6 -8 -11 -10 -11
-4 0 6 3 14 6 17 12 12 24 -4 24 -34z m2723 4 c-7 -3 -9 -12 -6 -21 6 -15 5
-15 -10 -3 -13 10 -15 17 -6 27 6 8 16 11 22 7 8 -5 8 -8 0 -10z m579 -28 c2
-20 0 -35 -7 -35 -5 0 -10 16 -10 35 0 19 3 35 6 35 4 0 9 -16 11 -35z m131
-16 c-6 -6 -7 3 -4 23 4 28 6 29 9 9 2 -13 0 -27 -5 -32z m-4192 18 c-1 -12
-15 -9 -19 4 -3 6 1 10 8 8 6 -3 11 -8 11 -12z m-81 -6 c0 -9 -24 -21 -41 -21
-5 0 -9 7 -9 15 0 9 9 15 25 15 14 0 25 -4 25 -9z m45 -1 c3 -5 -3 -10 -14
-10 -12 0 -21 5 -21 10 0 6 6 10 14 10 8 0 18 -4 21 -10z m3950 -24 c0 -19 -3
-32 -7 -29 -14 8 -8 63 6 63 1 0 1 -15 1 -34z m35 -1 c0 -13 -3 -26 -7 -28 -5
-3 -8 10 -8 28 0 18 3 31 8 28 4 -2 7 -15 7 -28z m217 13 c-3 -8 -6 -5 -6 6
-1 11 2 17 5 13 3 -3 4 -12 1 -19z m-4389 0 c-3 -8 -26 -14 -56 -15 -57 -3
-72 13 -19 20 66 8 79 7 75 -5z m57 2 c3 -5 -3 -10 -14 -10 -12 0 -21 5 -21
10 0 6 6 10 14 10 8 0 18 -4 21 -10z m3602 -15 c-4 -8 -11 -15 -17 -15 -7 0
-7 6 0 21 13 23 26 19 17 -6z m-3799 -3 c2 -7 -3 -12 -12 -12 -9 0 -16 7 -16
16 0 17 22 14 28 -4z m2052 -6 c0 -28 -15 -42 -26 -25 -4 8 -3 9 4 5 8 -5 12
1 12 14 0 12 -4 18 -10 15 -5 -3 -10 -1 -10 4 0 6 7 11 15 11 9 0 15 -9 15
-24z m68 -17 c-1 -13 -7 -23 -13 -22 -13 3 -18 30 -11 50 10 24 29 1 24 -28z
m-184 -22 c7 -6 6 -7 -4 -4 -8 2 -16 16 -17 33 -1 25 0 26 4 4 3 -14 10 -29
17 -33z m250 28 c-4 -8 -8 -15 -10 -15 -2 0 -4 7 -4 15 0 8 4 15 10 15 5 0 7
-7 4 -15z m-314 -26 c0 -10 -4 -19 -10 -19 -5 0 -7 7 -4 15 4 8 1 15 -6 15 -6
0 -8 5 -5 10 9 15 25 2 25 -21z m1881 -12 c-8 -8 -11 -7 -11 4 0 20 13 34 18
19 3 -7 -1 -17 -7 -23z m-3971 -7 c0 -16 -2 -30 -4 -30 -2 0 -6 14 -8 30 -3
17 -1 30 4 30 4 0 8 -13 8 -30z m3936 -35 c-9 -7 -16 -17 -16 -23 0 -5 -7 -13
-16 -16 -17 -6 -14 0 20 48 13 20 21 25 24 16 3 -7 -3 -19 -12 -25z m347 10
c-7 -19 -43 -20 -43 -1 0 8 8 16 18 19 24 5 32 -1 25 -18z m67 11 c0 -14 -29
-31 -38 -22 -2 3 -2 12 1 21 8 19 37 20 37 1z m78 -9 c3 -12 -3 -17 -22 -17
-25 0 -35 18 -19 34 12 12 38 2 41 -17z m52 2 c-13 -8 -13 -10 0 -19 9 -6 10
-10 3 -10 -19 0 -26 20 -12 36 6 8 14 12 18 9 3 -3 -1 -10 -9 -16z m-2473 -11
c-3 -8 -6 -5 -6 6 -1 11 2 17 5 13 3 -3 4 -12 1 -19z m627 -3 c19 -12 26 -13
32 -4 5 9 9 7 15 -7 4 -11 25 -29 48 -39 26 -13 41 -27 41 -39 0 -10 8 -25 18
-33 15 -13 15 -13 -8 -7 -27 7 -70 33 -70 41 0 3 7 3 15 -1 23 -8 18 2 -7 15
-13 6 -20 8 -16 4 9 -9 -29 -51 -39 -42 -3 4 -1 7 5 7 7 0 12 8 12 18 0 14 -2
15 -10 2 -8 -12 -10 -11 -10 6 0 25 -24 49 -40 39 -6 -4 -19 -1 -28 7 -12 10
-47 15 -116 17 -54 1 -102 4 -106 6 -11 6 -174 -36 -178 -46 -2 -4 -10 -5 -18
-2 -18 7 -48 -60 -45 -104 1 -18 -3 -33 -8 -33 -5 0 -7 9 -4 20 6 23 0 25 -28
10 -13 -8 -19 -21 -19 -46 0 -22 -4 -33 -10 -29 -6 4 -8 15 -5 26 4 10 4 19 1
19 -9 0 -66 -123 -66 -142 0 -10 -7 -18 -15 -18 -8 0 -15 7 -15 15 0 41 129
246 187 298 11 10 51 26 88 37 37 11 69 21 71 22 1 2 71 2 154 1 116 -2 156
-6 174 -18z m1586 15 c0 -12 -35 -31 -43 -24 -3 3 -3 12 0 20 6 16 43 19 43 4z
m-968 -34 c86 -22 138 -42 162 -60 43 -32 46 -45 10 -38 -21 4 -25 2 -19 -8 6
-10 4 -12 -9 -7 -10 4 -23 7 -29 8 -7 0 -3 4 8 8 17 7 17 8 -7 13 -16 3 -25 1
-21 -5 3 -5 -8 -7 -28 -3 -33 6 -33 6 5 -9 54 -21 58 -29 11 -22 l-40 6 43
-15 c54 -20 48 -30 -8 -13 -31 9 -49 24 -71 56 -33 48 -49 54 -49 21 -1 -22
-1 -22 -15 -5 -7 11 -11 26 -8 35 5 10 3 13 -6 8 -7 -5 -22 1 -37 14 -28 27
-77 29 -105 4 -10 -9 -19 -12 -19 -6 0 18 51 52 79 52 14 0 83 -15 153 -34z
m908 25 c0 -11 -13 -21 -37 -26 -77 -18 -105 -27 -156 -47 -58 -23 -71 -45
-23 -40 18 2 26 -2 26 -13 0 -20 2 -20 -114 15 -131 40 -159 39 -215 -7 -3 -2
8 -17 24 -33 16 -17 26 -30 22 -30 -4 0 -53 23 -109 51 -55 28 -109 48 -119
46 -10 -3 -26 4 -36 15 -18 20 -17 20 32 15 28 -2 71 -13 96 -23 l47 -18 35
27 c50 38 81 40 162 14 l69 -23 90 34 c117 44 206 62 206 43z m390 -18 c0 -19
-3 -24 -10 -17 -6 6 -8 18 -4 27 9 24 14 21 14 -10z m80 -14 c0 -24 -4 -30
-17 -27 -22 4 -30 47 -12 59 20 12 29 1 29 -32z m377 15 c2 -13 1 -15 -4 -4
-3 8 -11 19 -17 23 -7 6 -6 7 4 4 8 -2 16 -12 17 -23z m-5037 -96 c-11 -24
-17 -34 -14 -23 4 11 12 45 18 75 9 47 11 51 14 23 2 -18 -6 -51 -18 -75z
m4720 62 c0 -16 -4 -30 -10 -30 -5 0 -10 14 -10 30 0 17 5 30 10 30 6 0 10
-13 10 -30z m-2740 -15 c0 -19 -2 -35 -4 -35 -2 0 -6 16 -8 35 -2 19 0 35 4
35 4 0 8 -16 8 -35z m457 -22 c-3 -10 -5 -2 -5 17 0 19 2 27 5 18 2 -10 2 -26
0 -35z m73 31 c0 -8 -5 -12 -10 -9 -6 4 -8 11 -5 16 9 14 15 11 15 -7z m-1674
-15 c3 -5 -15 -9 -40 -9 -45 0 -72 15 -39 22 26 5 72 -3 79 -13z m1544 -4 c0
-14 -3 -25 -7 -25 -5 0 -8 11 -8 25 0 14 3 25 8 25 4 0 7 -11 7 -25z m2400
-12 c0 -20 -3 -33 -7 -29 -11 11 -12 66 -2 66 5 0 9 -16 9 -37z m-2482 -6 c3
-21 -1 -27 -15 -26 -10 0 -13 3 -5 6 6 2 12 14 12 24 0 11 -4 17 -10 14 -5 -3
-10 -1 -10 5 0 23 25 3 28 -23z m282 9 c0 -14 -6 -28 -12 -32 -7 -4 -10 -4 -6
0 4 5 3 19 -2 32 -7 19 -6 24 5 24 9 0 15 -10 15 -24z m-1900 4 c0 -12 -47
-12 -75 0 -15 6 -8 9 28 9 26 1 47 -3 47 -9z m1970 -15 c0 -16 -6 -25 -15 -25
-9 0 -15 9 -15 25 0 16 6 25 15 25 9 0 15 -9 15 -25z m215 15 c-3 -5 -11 -10
-16 -10 -6 0 -7 5 -4 10 3 6 11 10 16 10 6 0 7 -4 4 -10z m-1896 -6 c17 -4 31
-10 31 -15 0 -10 -64 -12 -99 -2 -23 6 -23 7 -5 14 25 10 35 10 73 3z m1238
-26 c-3 -7 -5 -2 -5 12 0 14 2 19 5 13 2 -7 2 -19 0 -25z m303 17 c0 -8 -4
-15 -10 -15 -5 0 -10 7 -10 15 0 8 5 15 10 15 6 0 10 -7 10 -15z m2330 -26 c0
-24 -4 -38 -10 -34 -5 3 -10 22 -10 41 0 19 5 34 10 34 6 0 10 -18 10 -41z
m-4317 24 c-13 -2 -35 -2 -50 0 -16 2 -5 4 22 4 28 0 40 -2 28 -4z m-134 -19
c2 -2 -18 -4 -45 -3 -36 0 -44 3 -29 9 18 7 63 3 74 -6z m2476 6 c3 -5 -1 -10
-10 -10 -9 0 -13 5 -10 10 3 6 8 10 10 10 2 0 7 -4 10 -10z m662 -16 c-9 -9
-28 6 -21 18 4 6 10 6 17 -1 6 -6 8 -13 4 -17z m-2694 6 c10 0 15 -4 12 -10
-8 -13 -92 -13 -100 -1 -7 12 23 20 50 15 11 -2 28 -4 38 -4z m296 4 c43 -9
39 -24 -6 -24 -49 0 -84 10 -77 21 6 11 39 12 83 3z m2691 -15 c0 -6 -4 -7
-10 -4 -5 3 -10 11 -10 16 0 6 5 7 10 4 6 -3 10 -11 10 -16z m-3597 4 c-7 -2
-19 -2 -25 0 -7 3 -2 5 12 5 14 0 19 -2 13 -5z m2157 3 c0 -3 -4 -8 -10 -11
-5 -3 -10 -1 -10 4 0 6 5 11 10 11 6 0 10 -2 10 -4z m64 -4 c3 -5 -1 -9 -9 -9
-8 0 -12 4 -9 9 3 4 7 8 9 8 2 0 6 -4 9 -8z m834 -20 c2 -15 -2 -22 -12 -22
-11 0 -16 9 -16 26 0 31 23 28 28 -4z m-771 -4 c-3 -8 -6 -5 -6 6 -1 11 2 17
5 13 3 -3 4 -12 1 -19z m1073 2 c0 -11 -4 -20 -10 -20 -5 0 -10 9 -10 20 0 11
5 20 10 20 6 0 10 -9 10 -20z m454 4 c3 -8 2 -12 -4 -9 -6 3 -10 10 -10 16 0
14 7 11 14 -7z m618 -24 c2 -23 -1 -40 -7 -40 -5 0 -10 18 -10 40 0 22 3 40 6
40 4 0 9 -18 11 -40z m248 -1 c0 -24 -4 -38 -10 -34 -5 3 -10 22 -10 41 0 19
5 34 10 34 6 0 10 -18 10 -41z m-4210 21 c12 -8 11 -10 -7 -10 -12 0 -25 -5
-28 -11 -6 -9 -40 -6 -90 9 -18 5 -18 6 5 13 37 10 103 10 120 -1z m1517 -37
c-3 -10 -5 -2 -5 17 0 19 2 27 5 18 2 -10 2 -26 0 -35z m372 20 c0 -25 -1 -26
-9 -8 -12 27 -12 35 0 35 6 0 10 -12 9 -27z m58 -20 c-3 -10 -5 -2 -5 17 0 19
2 27 5 18 2 -10 2 -26 0 -35z m72 15 c-1 -31 -1 -31 -8 -8 -5 14 -6 28 -4 33
9 15 13 6 12 -25z m80 0 c-1 -31 -1 -31 -8 -8 -5 14 -6 28 -4 33 9 15 13 6 12
-25z m72 19 c-1 -4 -1 -17 -1 -29 0 -27 -5 -21 -14 15 -5 20 -3 28 4 25 6 -2
11 -7 11 -11z m79 -19 c0 -36 -4 -35 -14 5 -4 16 -2 27 4 27 5 0 10 -14 10
-32z m70 2 c0 -31 -16 -41 -26 -15 -8 19 2 45 16 45 5 0 10 -13 10 -30z
m-2012 11 c10 -6 8 -10 -10 -13 -33 -6 -98 2 -98 13 0 11 91 12 108 0z m320 0
c10 -6 9 -10 -7 -14 -28 -7 -101 3 -101 14 0 11 91 11 108 0z m2542 -5 c0 -8
-4 -17 -8 -20 -4 -2 -8 4 -8 15 0 10 4 19 8 19 4 0 8 -6 8 -14z m460 -2 c0 -2
-9 -4 -20 -4 -11 0 -20 4 -20 9 0 5 9 7 20 4 11 -3 20 -7 20 -9z m-3815 -60
c418 -86 626 -136 614 -148 -2 -3 -71 13 -152 34 -82 21 -291 67 -465 101
-174 34 -321 66 -326 70 -13 12 36 3 329 -57z m2865 40 c0 -2 -7 -4 -15 -4 -8
0 -15 4 -15 10 0 5 7 7 15 4 8 -4 15 -8 15 -10z m252 -9 c3 -14 1 -25 -3 -25
-5 0 -9 11 -9 25 0 14 2 25 4 25 2 0 6 -11 8 -25z m-2808 6 c18 -7 18 -8 2
-14 -21 -8 -94 2 -102 14 -6 11 73 11 100 0z m336 0 l25 -7 -27 -7 c-34 -9
-110 2 -102 14 6 10 68 10 104 0z m326 -1 c8 0 14 -4 14 -9 0 -17 -39 -22 -82
-10 -37 10 -40 13 -23 20 11 5 33 6 49 4 16 -3 35 -5 42 -5z m1989 0 c3 -6 -1
-7 -9 -4 -18 7 -21 14 -7 14 6 0 13 -4 16 -10z m912 4 c-3 -3 -12 -4 -19 -1
-8 3 -5 6 6 6 11 1 17 -2 13 -5z m570 -61 c-2 -16 -4 -5 -4 22 0 28 2 40 4 28
2 -13 2 -35 0 -50z m-1629 29 c2 -15 -2 -22 -12 -22 -9 0 -16 5 -16 11 0 5 5
7 10 4 6 -3 10 1 10 10 0 9 -4 13 -10 10 -5 -3 -10 -1 -10 5 0 21 25 4 28 -18z
m372 13 c0 -9 -6 -12 -15 -9 -8 4 -12 10 -9 15 8 14 24 10 24 -6z m630 -10
c12 -31 3 -57 -19 -53 -26 5 -28 78 -1 78 6 0 15 -11 20 -25z m-2750 5 c0 -5
-7 -10 -15 -10 -8 0 -15 5 -15 10 0 6 7 10 15 10 8 0 15 -4 15 -10z m1820 0
c0 -5 -7 -10 -15 -10 -8 0 -15 5 -15 10 0 6 7 10 15 10 8 0 15 -4 15 -10z
m505 -15 c0 -14 -3 -25 -7 -25 -10 0 -10 34 -1 43 3 4 7 7 7 7 1 0 1 -11 1
-25z m-2942 9 c32 -6 35 -8 21 -19 -12 -8 -30 -9 -58 -4 -23 5 -45 8 -51 9
-15 1 18 20 35 20 8 0 32 -3 53 -6z m362 -13 c16 -7 14 -9 -13 -14 -35 -7 -89
1 -98 14 -6 11 83 11 111 0z m1333 -16 c-3 -3 -9 2 -12 12 -6 14 -5 15 5 6 7
-7 10 -15 7 -18z m142 -5 c0 -16 -2 -30 -4 -30 -2 0 -6 14 -8 30 -3 17 -1 30
4 30 4 0 8 -13 8 -30z m150 -2 c0 -36 -4 -35 -14 5 -4 16 -2 27 4 27 5 0 10
-14 10 -32z m70 2 c0 -16 -2 -30 -4 -30 -2 0 -6 14 -8 30 -3 17 -1 30 4 30 4
0 8 -13 8 -30z m70 0 c0 -16 -3 -30 -7 -30 -5 0 -8 14 -8 30 0 17 3 30 8 30 4
0 7 -13 7 -30z m658 18 c7 -7 12 -16 12 -20 0 -15 -15 -8 -28 12 -13 22 -3 27
16 8z m-48 -30 c0 -30 -1 -31 -16 -16 -9 9 -14 24 -11 32 11 27 27 17 27 -16z
m-2532 -3 c3 -3 -4 -5 -16 -5 -12 0 -22 -4 -22 -8 0 -5 -22 -4 -50 2 -53 11
-65 22 -27 28 23 4 107 -9 115 -17z m409 9 c-3 -3 -12 -4 -19 -1 -8 3 -5 6 6
6 11 1 17 -2 13 -5z m3085 -39 c2 -25 0 -45 -3 -45 -4 0 -9 20 -11 45 -2 25 0
45 3 45 4 0 9 -20 11 -45z m358 -1 c0 -25 -4 -43 -8 -40 -7 4 -4 86 4 86 2 0
4 -21 4 -46z m-4825 -9 c132 -20 242 -38 243 -40 7 -7 22 -81 22 -112 0 -27
-4 -33 -22 -34 -13 0 -77 -4 -143 -8 -89 -6 -124 -5 -137 4 -15 10 7 14 124
24 78 6 143 13 143 14 1 1 -2 21 -7 44 -10 49 1 45 -288 93 -216 37 -222 38
-215 51 4 5 14 8 23 5 10 -3 125 -21 257 -41z m1309 25 c7 -7 -6 -10 -39 -10
-66 0 -101 10 -83 22 16 11 108 2 122 -12z m1842 5 c4 -8 3 -23 0 -32 -6 -15
-8 -15 -16 -3 -6 8 -10 20 -10 25 0 6 5 3 10 -5 8 -13 10 -13 10 2 0 9 -6 19
-12 21 -10 4 -10 6 0 6 7 1 15 -6 18 -14z m1870 -361 c-30 -179 -102 -361
-203 -513 -71 -106 -222 -259 -326 -329 -134 -92 -321 -167 -477 -192 -85 -13
-1630 -14 -1630 -1 0 6 296 11 768 14 736 3 771 4 857 24 239 56 455 178 625
353 73 75 197 236 188 245 -2 2 -166 7 -363 10 -198 3 -369 8 -380 10 -11 2
-74 5 -140 6 l-120 3 135 6 c74 3 -128 7 -450 9 -322 2 -634 7 -695 11 -61 3
199 7 582 8 380 1 694 6 697 11 3 4 18 6 33 3 49 -9 294 -2 314 9 15 8 24 7
36 -3 12 -9 67 -14 204 -16 l188 -4 34 69 c79 157 116 316 118 512 l2 126 9
-140 c7 -111 6 -159 -6 -231z m-3379 334 c-3 -8 -6 -5 -6 6 -1 11 2 17 5 13 3
-3 4 -12 1 -19z m1923 -8 c0 -22 -5 -30 -17 -29 -11 0 -13 3 -5 6 6 2 12 13
12 23 0 10 -6 21 -12 23 -8 3 -6 6 5 6 12 1 17 -7 17 -29z m-2455 11 l30 -7
-37 -7 c-42 -9 -108 0 -108 14 0 10 70 10 115 0z m2503 -11 c7 -11 11 -20 9
-20 -2 0 -12 9 -22 20 -10 11 -14 20 -9 20 5 0 15 -9 22 -20z m-1091 -22 c-3
-7 -5 -2 -5 12 0 14 2 19 5 13 2 -7 2 -19 0 -25z m82 0 c-1 -31 -1 -31 -8 -8
-5 14 -6 28 -4 33 9 15 13 6 12 -25z m-1120 2 c11 -7 1 -9 -34 -10 -61 0 -97
9 -89 22 7 12 99 2 123 -12z m1201 10 c0 -5 -2 -10 -4 -10 -3 0 -8 5 -11 10
-3 6 -1 10 4 10 6 0 11 -4 11 -10z m80 -15 c0 -25 -23 -35 -35 -15 -10 16 2
40 20 40 9 0 15 -9 15 -25z m60 0 c0 -14 -2 -25 -4 -25 -2 0 -6 11 -8 25 -3
14 -1 25 3 25 5 0 9 -11 9 -25z m347 -12 c-3 -10 -5 -4 -5 12 0 17 2 24 5 18
2 -7 2 -21 0 -30z m935 -8 c-3 -28 -1 -35 13 -35 14 0 16 7 13 35 -2 20 0 31
5 26 5 -5 7 -21 5 -37 -2 -21 -8 -29 -23 -29 -16 0 -21 8 -23 38 -2 20 1 37 5
37 5 0 7 -16 5 -35z m-2828 10 c49 -7 59 -15 20 -15 -17 0 -35 -5 -40 -10 -7
-7 -28 -5 -65 7 -49 15 -52 17 -29 24 14 4 36 6 50 3 14 -2 43 -6 64 -9z
m3183 -57 c-2 -13 -4 -5 -4 17 -1 22 1 32 4 23 2 -10 2 -28 0 -40z m-857 -5
c0 -25 -3 -43 -6 -40 -10 10 -12 87 -3 87 5 0 9 -21 9 -47z m-1945 28 l30 -7
-31 -6 c-17 -4 -50 -1 -75 7 l-44 14 45 -1 c25 0 59 -3 75 -7z m1025 -1 c0 -5
-5 -10 -11 -10 -5 0 -7 5 -4 10 3 6 8 10 11 10 2 0 4 -4 4 -10z m210 0 c0 -5
-2 -10 -4 -10 -3 0 -8 5 -11 10 -3 6 -1 10 4 10 6 0 11 -4 11 -10z m758 -21
c-3 -8 -7 -3 -11 10 -4 17 -3 21 5 13 5 -5 8 -16 6 -23z m-2618 0 c10 -6 5 -7
-15 -3 -16 4 -34 11 -40 16 -11 12 31 1 55 -13z m445 6 c38 -12 39 -13 10 -14
-16 0 -43 6 -60 14 -40 18 -5 19 50 0z m-1605 -5 c-36 -12 -80 -12 -80 0 0 6
24 10 53 9 41 -1 47 -3 27 -9z m3320 -7 c0 -10 -4 -14 -8 -8 -4 6 -11 13 -16
18 -5 4 -2 7 7 7 10 0 17 -8 17 -17z m30 -14 c0 -10 -4 -19 -9 -19 -5 0 -8 11
-7 24 1 28 16 24 16 -5z m-1115 4 c29 -5 29 -6 7 -14 -28 -11 -125 8 -116 23
6 9 29 7 109 -9z m-658 -19 c45 -13 53 -18 39 -26 -18 -10 -140 25 -152 44 -8
13 26 7 113 -18z m428 6 l50 -7 -60 -1 c-33 0 -71 4 -85 8 -23 7 -22 8 10 8
19 0 58 -3 85 -8z m881 -14 c2 -12 1 -13 -3 -1 -2 8 -9 15 -14 15 -14 0 -11
-38 4 -43 9 -4 9 -6 -1 -6 -16 -1 -26 24 -18 45 8 20 30 13 32 -10z m134 20
c0 -2 -7 -7 -16 -10 -8 -3 -12 -2 -9 4 6 10 25 14 25 6z m-1211 -17 l36 -1
-38 -8 c-43 -8 -84 -3 -94 13 -4 7 5 8 27 4 18 -4 49 -8 69 -8z m1971 -24 c0
-14 -2 -25 -4 -25 -2 0 -6 11 -8 25 -3 14 -1 25 3 25 5 0 9 -11 9 -25z m-1357
-6 c31 -7 57 -16 57 -20 0 -15 -115 -10 -148 7 -18 8 -32 17 -32 20 0 8 67 4
123 -7z m1401 -5 c3 -8 2 -12 -4 -9 -6 3 -10 10 -10 16 0 14 7 11 14 -7z
m-1596 -6 c46 -12 46 -12 17 -19 -47 -10 -105 -10 -105 1 0 6 -10 10 -22 11
-22 0 -22 1 -3 9 29 12 59 12 113 -2z m1100 -19 c-3 -8 -7 -3 -11 10 -4 17 -3
21 5 13 5 -5 8 -16 6 -23z m-1568 6 c23 -8 59 -16 79 -16 32 -2 31 -2 -14 -9
-51 -8 -155 14 -155 32 0 13 44 9 90 -7z m289 -5 c11 -6 -4 -9 -46 -10 -72 0
-102 8 -81 22 15 10 104 2 127 -12z m2543 -20 c5 -51 -18 -55 -24 -5 -2 20 -2
38 1 40 12 13 19 2 23 -35z m-1218 15 c3 -8 1 -15 -4 -15 -6 0 -10 7 -10 15 0
8 2 15 4 15 2 0 6 -7 10 -15z m973 -32 c-3 -10 -5 -4 -5 12 0 17 2 24 5 18 2
-7 2 -21 0 -30z m40 0 c-3 -10 -5 -4 -5 12 0 17 2 24 5 18 2 -7 2 -21 0 -30z
m-609 -8 c-3 -3 -9 2 -12 12 -6 14 -5 15 5 6 7 -7 10 -15 7 -18z m52 -20 c0
-19 -2 -35 -4 -35 -2 0 -6 16 -8 35 -2 19 0 35 4 35 4 0 8 -16 8 -35z m-3047
8 c-67 -2 -179 -2 -250 0 -70 1 -15 3 122 3 138 0 195 -2 128 -3z m827 -3 c0
-5 -7 -7 -15 -4 -8 4 -15 8 -15 10 0 2 7 4 15 4 8 0 15 -4 15 -10z m180 -62
c0 -13 -26 -9 -74 12 -67 28 -56 41 14 16 33 -12 60 -24 60 -28z m-145 7 c40
-13 40 -13 9 -14 -43 -1 -94 10 -94 20 0 13 38 10 85 -6z m868 -12 c39 -20
124 -105 110 -110 -6 -2 -36 16 -67 40 -73 60 -85 64 -229 66 -46 1 -66 5 -62
12 5 7 32 8 80 4 49 -5 75 -4 79 4 8 12 46 6 89 -16z m2077 -8 c0 -19 -3 -35
-7 -35 -5 0 -8 16 -8 35 0 19 3 35 8 35 4 0 7 -16 7 -35z m-762 -26 c-3 -20
-5 -19 -9 9 -3 20 -2 29 4 23 5 -5 7 -19 5 -32z m-2895 24 c-46 -2 -120 -2
-165 0 -46 1 -9 3 82 3 91 0 128 -2 83 -3z m2459 -45 c-8 -8 -9 -4 -5 13 4 13
8 18 11 10 2 -7 -1 -18 -6 -23z m485 -65 c-3 -10 -5 -4 -5 12 0 17 2 24 5 18
2 -7 2 -21 0 -30z m690 11 c-3 -40 21 -41 26 -2 4 33 4 33 5 -5 2 -34 0 -38
-20 -35 -23 3 -34 28 -24 54 9 22 15 16 13 -12z m-2957 -2 c27 -6 -4 -10 -125
-16 -192 -9 -625 -6 -625 4 0 10 -113 11 -129 1 -10 -6 -22 -5 -35 2 -18 10
-10 13 54 18 104 9 817 2 860 -9z m-1100 -3 c0 -5 -17 -9 -37 -8 -27 0 -32 3
-20 8 28 11 57 11 57 0z m-1127 -6 c-7 -2 -19 -2 -25 0 -7 3 -2 5 12 5 14 0
19 -2 13 -5z m910 0 c-7 -2 -19 -2 -25 0 -7 3 -2 5 12 5 14 0 19 -2 13 -5z
m110 0 c-7 -2 -19 -2 -25 0 -7 3 -2 5 12 5 14 0 19 -2 13 -5z m2344 1 c-3 -3
-12 -4 -19 -1 -8 3 -5 6 6 6 11 1 17 -2 13 -5z m66 -11 c-7 -2 -19 -2 -25 0
-7 3 -2 5 12 5 14 0 19 -2 13 -5z m60 -10 c-7 -2 -19 -2 -25 0 -7 3 -2 5 12 5
14 0 19 -2 13 -5z m782 -47 c55 -6 96 -14 90 -18 -5 -3 -571 -9 -1257 -13
-928 -6 -1248 -5 -1248 4 0 8 56 11 193 11 105 0 284 3 397 6 766 23 1676 28
1825 10z m943 -49 c2 -20 -1 -37 -5 -37 -5 0 -7 16 -5 36 3 28 1 35 -9 32 -8
-3 -14 -19 -14 -36 0 -18 -3 -32 -7 -32 -10 0 -10 64 -1 74 18 17 38 -1 41
-37z m-330 -3 c-3 -14 -5 -12 -10 9 -3 19 -2 25 4 19 6 -6 8 -18 6 -28z
m-4158 -58 c0 -2 -8 -10 -17 -17 -16 -13 -17 -12 -4 4 13 16 21 21 21 13z
m1203 -13 c-13 -2 -33 -2 -45 0 -13 2 -3 4 22 4 25 0 35 -2 23 -4z m1485 -40
c-10 -2 -26 -2 -35 0 -10 3 -2 5 17 5 19 0 27 -2 18 -5z m-2683 -24 c4 -5 0
-18 -9 -28 -9 -10 -13 -21 -9 -24 3 -4 1 -7 -5 -7 -17 0 -15 10 5 32 9 10 13
21 9 25 -4 4 -11 1 -16 -7 -6 -8 -10 -10 -10 -4 0 23 24 32 35 13z m1198 -26
c-13 -2 -33 -2 -45 0 -13 2 -3 4 22 4 25 0 35 -2 23 -4z m3285 -90 c-1 -37 -1
-37 -5 -5 -3 20 -10 32 -20 32 -11 0 -14 -8 -11 -30 3 -16 1 -30 -4 -30 -4 0
-8 16 -8 35 0 31 3 35 25 35 23 0 25 -4 23 -37z m-4488 -28 c0 -19 -3 -35 -7
-35 -5 0 -8 16 -8 35 0 19 3 35 8 35 4 0 7 -16 7 -35z m1203 18 c-13 -2 -33
-2 -45 0 -13 2 -3 4 22 4 25 0 35 -2 23 -4z m1585 0 c-10 -2 -26 -2 -35 0 -10
3 -2 5 17 5 19 0 27 -2 18 -5z m197 -3 c-7 -11 -65 -9 -65 3 0 4 16 7 36 7 20
0 33 -4 29 -10z m203 3 c-10 -2 -26 -2 -35 0 -10 3 -2 5 17 5 19 0 27 -2 18
-5z m132 3 c0 -2 -16 -6 -35 -8 -19 -2 -35 0 -35 4 0 4 16 8 35 8 19 0 35 -2
35 -4z m106 -3 c-9 -10 -66 -11 -66 -1 0 4 17 8 37 8 20 0 33 -3 29 -7z m114
-3 c0 -5 -16 -10 -35 -10 -19 0 -35 5 -35 10 0 6 16 10 35 10 19 0 35 -4 35
-10z m110 0 c0 -5 -16 -10 -35 -10 -19 0 -35 5 -35 10 0 6 16 10 35 10 19 0
35 -4 35 -10z m98 3 c-10 -2 -28 -2 -40 0 -13 2 -5 4 17 4 22 1 32 -1 23 -4z
m740 -126 c3 -34 1 -37 -22 -37 -23 0 -26 4 -26 34 0 32 13 47 35 42 6 -1 11
-19 13 -39z m-4488 -7 c0 -22 -3 -40 -7 -40 -5 0 -7 17 -6 37 2 44 2 43 8 43
3 0 5 -18 5 -40z m1203 33 c-13 -2 -33 -2 -45 0 -13 2 -3 4 22 4 25 0 35 -2
23 -4z m0 -90 c-13 -2 -33 -2 -45 0 -13 2 -3 4 22 4 25 0 35 -2 23 -4z m2620
-30 c-7 -2 -19 -2 -25 0 -7 3 -2 5 12 5 14 0 19 -2 13 -5z m663 -18 c8 -34 -1
-55 -26 -55 -16 0 -20 6 -20 33 0 19 3 37 7 40 14 15 33 6 39 -18z m-4486 -20
c0 -19 -2 -35 -4 -35 -2 0 -6 16 -8 35 -2 19 0 35 4 35 4 0 8 -16 8 -35z m-3
-152 c-3 -10 -5 -4 -5 12 0 17 2 24 5 18 2 -7 2 -21 0 -30z m1496 -130 c-18
-2 -48 -2 -65 0 -18 2 -4 4 32 4 36 0 50 -2 33 -4z m170 0 c-7 -2 -19 -2 -25
0 -7 3 -2 5 12 5 14 0 19 -2 13 -5z m195 0 c-10 -2 -26 -2 -35 0 -10 3 -2 5
17 5 19 0 27 -2 18 -5z m125 0 c-13 -2 -35 -2 -50 0 -16 2 -5 4 22 4 28 0 40
-2 28 -4z m200 0 c-24 -2 -62 -2 -85 0 -24 2 -5 4 42 4 47 0 66 -2 43 -4z"/>
<path d="M3980 6290 c0 -16 5 -30 10 -30 6 0 10 14 10 30 0 17 -4 30 -10 30
-5 0 -10 -13 -10 -30z"/>
<path d="M5150 6301 c0 -15 6 -21 21 -21 14 0 19 5 17 17 -5 26 -38 29 -38 4z"/>
<path d="M5964 5866 c-9 -23 5 -68 19 -63 16 5 16 69 0 74 -7 3 -16 -2 -19
-11z"/>
<path d="M1694 6187 c-9 -25 0 -62 16 -62 10 0 15 10 15 34 0 36 -21 54 -31
28z"/>
<path d="M2860 6165 c0 -19 5 -35 10 -35 6 0 10 16 10 35 0 19 -4 35 -10 35
-5 0 -10 -16 -10 -35z"/>
<path d="M5510 6155 c0 -19 5 -35 10 -35 6 0 10 16 10 35 0 19 -4 35 -10 35
-5 0 -10 -16 -10 -35z"/>
<path d="M5154 6056 c-10 -26 0 -71 16 -71 17 0 24 27 16 61 -7 27 -24 32 -32
10z"/>
<path d="M2490 6045 c0 -9 5 -15 11 -13 6 2 11 8 11 13 0 5 -5 11 -11 13 -6 2
-11 -4 -11 -13z"/>
<path d="M2490 6005 c0 -9 5 -15 11 -13 6 2 11 8 11 13 0 5 -5 11 -11 13 -6 2
-11 -4 -11 -13z"/>
<path d="M1694 6037 c-10 -27 0 -72 16 -72 11 0 15 11 15 39 0 40 -20 61 -31
33z"/>
<path d="M3697 6034 c-4 -4 -7 -22 -7 -41 0 -27 4 -33 21 -33 17 0 20 5 17 37
-3 35 -17 51 -31 37z"/>
<path d="M837 6013 c-14 -13 -7 -63 8 -63 10 0 15 11 15 35 0 33 -8 43 -23 28z"/>
<path d="M2860 5915 c0 -19 5 -35 10 -35 6 0 10 16 10 35 0 19 -4 35 -10 35
-5 0 -10 -16 -10 -35z"/>
<path d="M2344 5906 c-8 -21 -1 -49 14 -54 8 -2 12 8 12 32 0 36 -16 49 -26
22z"/>
<path d="M3694 5856 c-8 -32 2 -59 19 -53 16 5 16 69 0 74 -7 3 -15 -7 -19
-21z"/>
<path d="M6102 5680 c0 -19 2 -27 5 -17 2 9 2 25 0 35 -3 9 -5 1 -5 -18z"/>
<path d="M1694 5637 c-10 -27 0 -72 16 -72 11 0 15 11 15 39 0 40 -20 61 -31
33z"/>
<path d="M5154 5596 c-9 -22 0 -69 13 -73 15 -5 27 38 18 66 -7 24 -23 27 -31
7z"/>
<path d="M2094 5555 c-8 -32 1 -55 21 -55 11 0 15 11 15 40 0 46 -25 57 -36
15z"/>
<path d="M5414 5535 c-3 -14 -4 -28 -1 -31 10 -10 27 7 27 26 0 30 -19 33 -26
5z"/>
<path d="M1086 5543 c-3 -3 -6 -21 -6 -40 0 -23 5 -33 15 -33 10 0 15 10 15
34 0 34 -11 52 -24 39z"/>
<path d="M5964 5437 c-9 -25 0 -62 16 -62 10 0 15 10 15 34 0 36 -21 54 -31
28z"/>
<path d="M2692 5398 c2 -18 8 -33 13 -33 6 0 11 15 13 33 3 24 -1 32 -13 32
-12 0 -16 -8 -13 -32z"/>
<path d="M2100 5395 c0 -9 5 -15 11 -13 6 2 11 8 11 13 0 5 -5 11 -11 13 -6 2
-11 -4 -11 -13z"/>
<path d="M5410 5379 c0 -38 24 -35 28 4 2 19 -1 27 -12 27 -11 0 -16 -10 -16
-31z"/>
<path d="M3487 5353 c-13 -12 -7 -43 8 -43 9 0 15 9 15 25 0 24 -10 32 -23 18z"/>
<path d="M600 5235 c0 -24 5 -35 15 -35 10 0 15 11 15 35 0 24 -5 35 -15 35
-10 0 -15 -11 -15 -35z"/>
<path d="M1090 5225 c-10 -12 -10 -15 4 -15 9 0 16 7 16 15 0 8 -2 15 -4 15
-2 0 -9 -7 -16 -15z"/>
<path d="M1694 5237 c-9 -25 0 -62 16 -62 10 0 15 10 15 34 0 36 -21 54 -31
28z"/>
<path d="M2094 5226 c-7 -31 4 -68 19 -63 16 5 15 79 0 84 -7 3 -15 -7 -19
-21z"/>
<path d="M5966 5235 c-13 -36 -7 -65 15 -65 17 0 20 5 17 37 -3 39 -21 55 -32
28z"/>
<path d="M3150 5080 c0 -16 5 -30 10 -30 6 0 10 14 10 30 0 17 -4 30 -10 30
-5 0 -10 -13 -10 -30z"/>
<path d="M2099 5073 c0 -5 -2 -17 -4 -28 -5 -26 9 -50 24 -41 17 11 14 76 -4
76 -8 0 -15 -3 -16 -7z"/>
<path d="M5964 5036 c-9 -23 0 -51 16 -51 10 0 15 10 15 29 0 32 -21 47 -31
22z"/>
<path d="M2095 4891 c-7 -35 -1 -51 21 -51 11 0 14 9 12 37 -4 46 -24 54 -33
14z"/>
<path d="M5967 4804 c-4 -4 -7 -20 -7 -36 0 -23 4 -29 18 -26 11 2 17 13 17
32 0 29 -14 43 -28 30z"/>
<path d="M3692 4690 c0 -14 2 -19 5 -12 2 6 2 18 0 25 -3 6 -5 1 -5 -13z"/>
<path d="M1700 4614 c0 -24 4 -34 13 -31 6 2 12 9 11 15 -1 7 -2 21 -2 32 -3
35 -22 21 -22 -16z"/>
<path d="M3692 4540 c0 -14 2 -19 5 -12 2 6 2 18 0 25 -3 6 -5 1 -5 -13z"/>
<path d="M2095 4481 c-8 -27 3 -63 18 -58 7 2 12 19 12 37 0 38 -20 52 -30 21z"/>
<path d="M3311 4444 c0 -11 3 -14 6 -6 3 7 2 16 -1 19 -3 4 -6 -2 -5 -13z"/>
<path d="M1700 4380 c0 -33 15 -41 22 -12 6 21 -1 42 -13 42 -5 0 -9 -13 -9
-30z"/>
<path d="M3311 4354 c0 -11 3 -14 6 -6 3 7 2 16 -1 19 -3 4 -6 -2 -5 -13z"/>
<path d="M5684 4297 c-9 -25 0 -62 16 -62 10 0 15 10 15 34 0 36 -21 54 -31
28z"/>
<path d="M5954 4266 c-8 -21 -1 -49 13 -53 6 -2 14 5 17 15 12 36 -17 72 -30
38z"/>
<path d="M3962 4150 c0 -14 2 -19 5 -12 2 6 2 18 0 25 -3 6 -5 1 -5 -13z"/>
<path d="M3962 4070 c0 -14 2 -19 5 -12 2 6 2 18 0 25 -3 6 -5 1 -5 -13z"/>
<path d="M3962 3920 c0 -14 2 -19 5 -12 2 6 2 18 0 25 -3 6 -5 1 -5 -13z"/>
<path d="M2602 3805 c0 -16 2 -22 5 -12 2 9 2 23 0 30 -3 6 -5 -1 -5 -18z"/>
<path d="M4755 3300 c-3 -5 -1 -10 4 -10 6 0 11 5 11 10 0 6 -2 10 -4 10 -3 0
-8 -4 -11 -10z"/>
<path d="M5450 2540 c0 -20 5 -30 15 -30 10 0 15 10 15 30 0 20 -5 30 -15 30
-10 0 -15 -10 -15 -30z"/>
<path d="M1414 2545 c-8 -19 2 -45 16 -45 5 0 10 14 10 30 0 31 -16 41 -26 15z"/>
<path d="M6152 2500 c0 -14 2 -19 5 -12 2 6 2 18 0 25 -3 6 -5 1 -5 -13z"/>
<path d="M2670 2376 c0 -9 5 -16 10 -16 6 0 10 4 10 9 0 6 -4 13 -10 16 -5 3
-10 -1 -10 -9z"/>
<path d="M5390 2330 c0 -5 5 -10 11 -10 5 0 7 5 4 10 -3 6 -8 10 -11 10 -2 0
-4 -4 -4 -10z"/>
<path d="M5220 2159 c0 -5 5 -7 10 -4 6 3 10 8 10 11 0 2 -4 4 -10 4 -5 0 -10
-5 -10 -11z"/>
<path d="M3452 2045 c0 -16 2 -22 5 -12 2 9 2 23 0 30 -3 6 -5 -1 -5 -18z"/>
<path d="M4428 1873 c7 -3 16 -2 19 1 4 3 -2 6 -13 5 -11 0 -14 -3 -6 -6z"/>
<path d="M5742 1945 c0 -16 2 -22 5 -12 2 9 2 23 0 30 -3 6 -5 -1 -5 -18z"/>
<path d="M3731 1874 c0 -11 3 -14 6 -6 3 7 2 16 -1 19 -3 4 -6 -2 -5 -13z"/>
<path d="M4361 1824 c0 -11 3 -14 6 -6 3 7 2 16 -1 19 -3 4 -6 -2 -5 -13z"/>
<path d="M4092 1800 c0 -14 2 -19 5 -12 2 6 2 18 0 25 -3 6 -5 1 -5 -13z"/>
<path d="M5390 1739 c0 -17 5 -29 11 -27 6 2 10 7 10 11 -1 4 -1 16 -1 27 0
11 -4 20 -10 20 -5 0 -10 -14 -10 -31z"/>
<path d="M4771 1714 c0 -11 3 -14 6 -6 3 7 2 16 -1 19 -3 4 -6 -2 -5 -13z"/>
<path d="M5431 975 c11 -10 269 -15 269 -5 0 6 -52 10 -137 10 -75 0 -134 -2
-132 -5z"/>
<path d="M5858 973 c50 -2 134 -2 185 0 50 1 9 3 -93 3 -102 0 -143 -2 -92 -3z"/>
<path d="M5898 953 c12 -2 32 -2 45 0 12 2 2 4 -23 4 -25 0 -35 -2 -22 -4z"/>
<path d="M6017 953 c18 -2 50 -2 70 0 21 2 7 4 -32 4 -38 0 -55 -2 -38 -4z"/>
<path d="M4020 1635 c0 -8 5 -15 10 -15 6 0 10 7 10 15 0 8 -4 15 -10 15 -5 0
-10 -7 -10 -15z"/>
<path d="M4060 1150 c-136 -4 -78 -6 220 -8 269 -1 400 2 390 8 -15 10 -254
10 -610 0z"/>
<path d="M5726 734 c-10 -27 -7 -44 9 -44 10 0 15 10 15 30 0 32 -14 40 -24
14z"/>
<path d="M5720 591 c0 -21 5 -31 16 -31 11 0 14 8 12 27 -4 39 -28 42 -28 4z"/>
</g>
</svg>
